%TF.GenerationSoftware,KiCad,Pcbnew,9.0.7*%
%TF.CreationDate,2026-09-08T18:45:36+05:30*%
%TF.ProjectId,eiko,65696b6f-2e6b-4696-9361-645f70636258,rev?*%
%TF.SameCoordinates,Original*%
%TF.FileFunction,Copper,L2,Bot*%
%TF.FilePolarity,Positive*%
%FSLAX46Y46*%
G04 Gerber Fmt 4.6, Leading zero omitted, Abs format (unit mm)*
G04 Created by KiCad (PCBNEW 9.0.7) date 2026-09-08 18:45:36*
%MOMM*%
%LPD*%
G01*
G04 APERTURE LIST*
G04 Aperture macros list*
%AMRoundRect*
0 Rectangle with rounded corners*
0 $1 Rounding radius*
0 $2 $3 $4 $5 $6 $7 $8 $9 X,Y pos of 4 corners*
0 Add a 4 corners polygon primitive as box body*
4,1,4,$2,$3,$4,$5,$6,$7,$8,$9,$2,$3,0*
0 Add four circle primitives for the rounded corners*
1,1,$1+$1,$2,$3*
1,1,$1+$1,$4,$5*
1,1,$1+$1,$6,$7*
1,1,$1+$1,$8,$9*
0 Add four rect primitives between the rounded corners*
20,1,$1+$1,$2,$3,$4,$5,0*
20,1,$1+$1,$4,$5,$6,$7,0*
20,1,$1+$1,$6,$7,$8,$9,0*
20,1,$1+$1,$8,$9,$2,$3,0*%
G04 Aperture macros list end*
%TA.AperFunction,ComponentPad*%
%ADD10RoundRect,0.250000X-0.350000X-0.625000X0.350000X-0.625000X0.350000X0.625000X-0.350000X0.625000X0*%
%TD*%
%TA.AperFunction,ComponentPad*%
%ADD11O,1.200000X1.750000*%
%TD*%
%TA.AperFunction,ComponentPad*%
%ADD12R,2.000000X2.000000*%
%TD*%
%TA.AperFunction,ComponentPad*%
%ADD13C,2.000000*%
%TD*%
%TA.AperFunction,ComponentPad*%
%ADD14R,3.200000X2.000000*%
%TD*%
%TA.AperFunction,ComponentPad*%
%ADD15R,1.700000X1.700000*%
%TD*%
%TA.AperFunction,ComponentPad*%
%ADD16C,1.700000*%
%TD*%
%TA.AperFunction,HeatsinkPad*%
%ADD17O,1.000000X2.100000*%
%TD*%
%TA.AperFunction,HeatsinkPad*%
%ADD18O,1.000000X1.600000*%
%TD*%
%TA.AperFunction,SMDPad,CuDef*%
%ADD19R,1.300000X0.300000*%
%TD*%
%TA.AperFunction,SMDPad,CuDef*%
%ADD20R,2.200000X1.800000*%
%TD*%
%TA.AperFunction,ViaPad*%
%ADD21C,0.600000*%
%TD*%
%TA.AperFunction,Conductor*%
%ADD22C,0.200000*%
%TD*%
G04 APERTURE END LIST*
D10*
%TO.P,J102,1,Pin_1*%
%TO.N,Net-(J102-Pin_1)*%
X219820000Y-97310000D03*
D11*
%TO.P,J102,2,Pin_2*%
%TO.N,GND*%
X221820000Y-97310000D03*
%TD*%
D12*
%TO.P,SW102,A,A*%
%TO.N,/ENC2_A*%
X211130000Y-65900000D03*
D13*
%TO.P,SW102,B,B*%
%TO.N,/ENC2_B*%
X211130000Y-70900000D03*
%TO.P,SW102,C,C*%
%TO.N,GND*%
X211130000Y-68400000D03*
D14*
%TO.P,SW102,MP*%
%TO.N,N/C*%
X218630000Y-62800000D03*
X218630000Y-74000000D03*
D13*
%TO.P,SW102,S1,S1*%
%TO.N,/GPIO_MENU*%
X225630000Y-70900000D03*
%TO.P,SW102,S2,S2*%
%TO.N,GND*%
X225630000Y-65900000D03*
%TD*%
D15*
%TO.P,J108,1,Pin_1*%
%TO.N,unconnected-(J108-Pin_1-Pad1)*%
X122740000Y-57980000D03*
D16*
%TO.P,J108,2,Pin_2*%
%TO.N,+3V3*%
X122740000Y-60520000D03*
%TO.P,J108,3,Pin_3*%
%TO.N,/DISP_SCL*%
X122740000Y-63060000D03*
%TO.P,J108,4,Pin_4*%
%TO.N,/DISP_SDA*%
X122740000Y-65600000D03*
%TO.P,J108,5,Pin_5*%
%TO.N,/DISP_5*%
X122740000Y-68140000D03*
%TO.P,J108,6,Pin_6*%
%TO.N,/DISP_6*%
X122740000Y-70680000D03*
%TO.P,J108,7,Pin_7*%
%TO.N,/DISP_7*%
X122740000Y-73220000D03*
%TO.P,J108,8,Pin_8*%
%TO.N,GND*%
X122740000Y-75760000D03*
%TO.P,J108,9,Pin_9*%
%TO.N,+3V3*%
X122740000Y-78300000D03*
%TD*%
D17*
%TO.P,J101,S1,SHIELD*%
%TO.N,GND*%
X224290000Y-117755000D03*
D18*
X224290000Y-113575000D03*
D17*
X215650000Y-117755000D03*
D18*
X215650000Y-113575000D03*
%TD*%
D12*
%TO.P,SW101,A,A*%
%TO.N,/ENC_A*%
X211000000Y-51630000D03*
D13*
%TO.P,SW101,B,B*%
%TO.N,/ENC_B*%
X211000000Y-56630000D03*
%TO.P,SW101,C,C*%
%TO.N,GND*%
X211000000Y-54130000D03*
D14*
%TO.P,SW101,MP*%
%TO.N,N/C*%
X218500000Y-48530000D03*
X218500000Y-59730000D03*
D13*
%TO.P,SW101,S1,S1*%
%TO.N,/GPIO_SHUTTER*%
X225500000Y-56630000D03*
%TO.P,SW101,S2,S2*%
%TO.N,GND*%
X225500000Y-51630000D03*
%TD*%
D15*
%TO.P,J104-ledrgbring,1,Pin_1*%
%TO.N,/GPIO_LEDring*%
X121070000Y-109399999D03*
D16*
%TO.P,J104-ledrgbring,2,Pin_2*%
%TO.N,+5V_BOOST*%
X121070000Y-106859999D03*
%TO.P,J104-ledrgbring,3,Pin_3*%
%TO.N,GND*%
X121070000Y-104320000D03*
%TO.P,J104-ledrgbring,4,Pin_4*%
%TO.N,unconnected-(J104-Pin_4-Pad4)*%
X121070000Y-101779999D03*
%TD*%
D19*
%TO.P,J103,1,Pin_1*%
%TO.N,GND*%
X162405000Y-85150000D03*
%TO.P,J103,2,Pin_2*%
%TO.N,/CAM1_D0_N*%
X162405000Y-85650000D03*
%TO.P,J103,3,Pin_3*%
%TO.N,/CAM1_D0_P*%
X162405000Y-86150000D03*
%TO.P,J103,4,Pin_4*%
%TO.N,GND*%
X162405000Y-86650000D03*
%TO.P,J103,5,Pin_5*%
%TO.N,/CAM1_D1_N*%
X162404999Y-87150000D03*
%TO.P,J103,6,Pin_6*%
%TO.N,/CAM1_D1_P*%
X162405000Y-87650000D03*
%TO.P,J103,7,Pin_7*%
%TO.N,GND*%
X162405000Y-88150000D03*
%TO.P,J103,8,Pin_8*%
%TO.N,/CAM1_C_N*%
X162405000Y-88650001D03*
%TO.P,J103,9,Pin_9*%
%TO.N,/CAM1_C_P*%
X162405000Y-89150000D03*
%TO.P,J103,10,Pin_10*%
%TO.N,GND*%
X162405000Y-89649999D03*
%TO.P,J103,11,Pin_11*%
%TO.N,/CAM1_D2_N*%
X162405000Y-90150000D03*
%TO.P,J103,12,Pin_12*%
%TO.N,/CAM1_D2_P*%
X162405000Y-90650000D03*
%TO.P,J103,13,Pin_13*%
%TO.N,GND*%
X162405000Y-91150001D03*
%TO.P,J103,14,Pin_14*%
%TO.N,/CAM1_D3_N*%
X162405000Y-91650000D03*
%TO.P,J103,15,Pin_15*%
%TO.N,/CAM1_D3_P*%
X162405000Y-92149999D03*
%TO.P,J103,16,Pin_16*%
%TO.N,GND*%
X162405000Y-92650000D03*
%TO.P,J103,17,Pin_17*%
%TO.N,/CAM1_SDA*%
X162405000Y-93150000D03*
%TO.P,J103,18,Pin_18*%
%TO.N,/CAM1_SCL*%
X162404999Y-93650000D03*
%TO.P,J103,19,Pin_19*%
%TO.N,+3V3*%
X162405000Y-94150000D03*
%TO.P,J103,20,Pin_20*%
X162405000Y-94650000D03*
%TO.P,J103,21,Pin_21*%
%TO.N,+1V8*%
X162405000Y-95150000D03*
%TO.P,J103,22,Pin_22*%
%TO.N,GND*%
X162405000Y-95650000D03*
D20*
%TO.P,J103,MP*%
%TO.N,N/C*%
X165655000Y-83250000D03*
X165655000Y-97550000D03*
%TD*%
D21*
%TO.N,+3V3*%
X205410000Y-116650000D03*
X205470000Y-113300000D03*
X163240000Y-94530000D03*
X143470000Y-85320000D03*
X204070000Y-96310000D03*
X203810000Y-117930000D03*
%TO.N,GND*%
X125890000Y-65990000D03*
X217320000Y-79950000D03*
X160321235Y-81630235D03*
X217320000Y-82040000D03*
X123370000Y-55430000D03*
X163450513Y-83370513D03*
X164510000Y-93130000D03*
X161439265Y-82209265D03*
X123050000Y-98490000D03*
X157265000Y-76365000D03*
%TO.N,+5V*%
X218270000Y-116850000D03*
X215100000Y-91250000D03*
X214040000Y-90270000D03*
X212547411Y-87945425D03*
%TO.N,/CAM1_D1_P*%
X155370000Y-87940000D03*
%TO.N,/CAM1_D3_N*%
X152170000Y-91650000D03*
%TO.N,/CAM1_C_P*%
X154070000Y-89190000D03*
%TO.N,/CAM1_D0_P*%
X156630000Y-86893683D03*
%TO.N,+1V8*%
X142622137Y-84538332D03*
%TO.N,/CAM1_D2_P*%
X152540000Y-90770000D03*
%TO.N,/CAM1_D3_P*%
X151830000Y-92460000D03*
%TO.N,/CAM1_SCL*%
X144337794Y-92469022D03*
%TO.N,/CAM1_D1_N*%
X156030000Y-87480000D03*
%TO.N,/CAM1_D0_N*%
X157690000Y-86190000D03*
%TO.N,/CAM1_SDA*%
X144071000Y-86010000D03*
%TO.N,/CAM1_D2_N*%
X153110000Y-90120000D03*
%TO.N,/CAM1_C_N*%
X154750000Y-88720000D03*
%TO.N,/Pi_SPI_MOSI*%
X167940000Y-84040000D03*
X148030000Y-85190000D03*
%TO.N,/Pi_SPI_CS*%
X160628012Y-84494541D03*
X189110000Y-109770000D03*
X148230000Y-82849000D03*
X206840000Y-109800000D03*
%TO.N,+5V_BOOST*%
X149430000Y-82249000D03*
X144420000Y-82230000D03*
%TO.N,/ENC_A*%
X186880000Y-86590000D03*
X150560735Y-95220735D03*
%TO.N,/ENC_B*%
X204900000Y-58840000D03*
X148965735Y-96815735D03*
%TO.N,/ENC2_A*%
X145660000Y-96499000D03*
%TO.N,/ENC2_B*%
X145640000Y-95300000D03*
X204616500Y-73290000D03*
%TO.N,/GPIO_SHUTTER*%
X157220000Y-77660000D03*
%TO.N,/GPIO_MENU*%
X144842251Y-95360000D03*
%TO.N,/GPIO_LEDring*%
X153250000Y-81999000D03*
%TD*%
D22*
%TO.N,+3V3*%
X162405000Y-94650000D02*
X163120000Y-94650000D01*
X143470000Y-94150000D02*
X162405000Y-94150000D01*
X162405000Y-94650000D02*
X162405000Y-94150000D01*
X204070000Y-96310000D02*
X207441000Y-99681000D01*
X143470000Y-85320000D02*
X143470000Y-94150000D01*
X207441000Y-99681000D02*
X207441000Y-111329000D01*
X163120000Y-94650000D02*
X163240000Y-94530000D01*
X207441000Y-111329000D02*
X205470000Y-113300000D01*
X203810000Y-117930000D02*
X204130000Y-117930000D01*
X204130000Y-117930000D02*
X205410000Y-116650000D01*
%TO.N,GND*%
X163840000Y-88140000D02*
X163840000Y-89560000D01*
X160580000Y-80490000D02*
X160060000Y-79970000D01*
X162405000Y-84416026D02*
X163450513Y-83370513D01*
X161439265Y-82209265D02*
X160580000Y-81350000D01*
X162405000Y-86650000D02*
X163820000Y-86650000D01*
X125890000Y-57950000D02*
X125890000Y-65990000D01*
X217320000Y-79950000D02*
X217320000Y-82040000D01*
X164510000Y-93130000D02*
X164030000Y-92650000D01*
X163680000Y-92650000D02*
X163840000Y-92490000D01*
X123900000Y-97640000D02*
X123900000Y-76920000D01*
X163840000Y-91110000D02*
X163840000Y-92490000D01*
X163830000Y-88150000D02*
X163840000Y-88140000D01*
X162405000Y-89649999D02*
X163750001Y-89649999D01*
X163750001Y-89649999D02*
X163840000Y-89560000D01*
X162405000Y-85150000D02*
X163307000Y-85150000D01*
X162405000Y-88150000D02*
X163830000Y-88150000D01*
X160060000Y-79970000D02*
X160060000Y-79160000D01*
X163840000Y-95640000D02*
X163830000Y-95650000D01*
X164030000Y-92650000D02*
X163680000Y-92650000D01*
X163799999Y-91150001D02*
X163840000Y-91110000D01*
X123050000Y-98490000D02*
X123900000Y-97640000D01*
X163307000Y-85150000D02*
X163840000Y-85683000D01*
X163820000Y-86650000D02*
X163840000Y-86630000D01*
X160321235Y-81608765D02*
X160321235Y-81630235D01*
X160580000Y-81350000D02*
X160321235Y-81608765D01*
X160580000Y-81350000D02*
X160580000Y-80490000D01*
X163840000Y-85683000D02*
X163840000Y-86630000D01*
X162405000Y-85150000D02*
X162405000Y-84416026D01*
X163830000Y-95650000D02*
X162405000Y-95650000D01*
X162405000Y-91150001D02*
X163799999Y-91150001D01*
X163840000Y-86630000D02*
X163840000Y-88140000D01*
X123370000Y-55430000D02*
X125890000Y-57950000D01*
X163840000Y-89560000D02*
X163840000Y-91110000D01*
X163840000Y-92490000D02*
X163840000Y-95640000D01*
X162405000Y-92650000D02*
X163680000Y-92650000D01*
X123900000Y-76920000D02*
X122740000Y-75760000D01*
X160060000Y-79160000D02*
X157265000Y-76365000D01*
%TO.N,+5V*%
X212547411Y-87945425D02*
X212547411Y-88777411D01*
X218270000Y-94420000D02*
X215100000Y-91250000D01*
X212547411Y-88777411D02*
X214040000Y-90270000D01*
X218270000Y-116850000D02*
X218270000Y-94420000D01*
%TO.N,/CAM1_D1_P*%
X162405000Y-87650000D02*
X161570100Y-87650000D01*
X161139100Y-88081000D02*
X155511000Y-88081000D01*
X155511000Y-88081000D02*
X155370000Y-87940000D01*
X161570100Y-87650000D02*
X161139100Y-88081000D01*
%TO.N,/CAM1_D3_N*%
X162405000Y-91650000D02*
X152170000Y-91650000D01*
%TO.N,/CAM1_C_P*%
X162405000Y-89150000D02*
X161590000Y-89150000D01*
X161419000Y-89321000D02*
X154201000Y-89321000D01*
X154201000Y-89321000D02*
X154070000Y-89190000D01*
X161590000Y-89150000D02*
X161419000Y-89321000D01*
%TO.N,/CAM1_D0_P*%
X161503000Y-86150000D02*
X162405000Y-86150000D01*
X160759317Y-86893683D02*
X161503000Y-86150000D01*
X156630000Y-86893683D02*
X160759317Y-86893683D01*
%TO.N,+1V8*%
X142622137Y-84538332D02*
X142520000Y-84640469D01*
X142520000Y-84640469D02*
X142520000Y-94520000D01*
X161454000Y-94551000D02*
X161454000Y-95199000D01*
X142520000Y-94520000D02*
X143272900Y-94520000D01*
X162356000Y-95199000D02*
X162405000Y-95150000D01*
X143272900Y-94520000D02*
X143303900Y-94551000D01*
X143303900Y-94551000D02*
X161454000Y-94551000D01*
X161454000Y-95199000D02*
X162356000Y-95199000D01*
%TO.N,/CAM1_D2_P*%
X162405000Y-90650000D02*
X161503001Y-90650000D01*
X161503001Y-90650000D02*
X161383001Y-90770000D01*
X161383001Y-90770000D02*
X152540000Y-90770000D01*
%TO.N,/CAM1_D3_P*%
X152209943Y-92460000D02*
X151830000Y-92460000D01*
X162405000Y-92149999D02*
X152519944Y-92149999D01*
X152519944Y-92149999D02*
X152209943Y-92460000D01*
%TO.N,/CAM1_SCL*%
X144449022Y-92469022D02*
X144540000Y-92560000D01*
X144550000Y-93650000D02*
X162404999Y-93650000D01*
X144337794Y-92469022D02*
X144449022Y-92469022D01*
X144540000Y-93640000D02*
X144550000Y-93650000D01*
X144540000Y-92560000D02*
X144540000Y-93640000D01*
%TO.N,/CAM1_D1_N*%
X156893626Y-87480000D02*
X161173000Y-87480000D01*
X156878943Y-87494683D02*
X156893626Y-87480000D01*
X161173000Y-87480000D02*
X161503000Y-87150000D01*
X156030000Y-87480000D02*
X156366374Y-87480000D01*
X156381057Y-87494683D02*
X156878943Y-87494683D01*
X156366374Y-87480000D02*
X156381057Y-87494683D01*
X161503000Y-87150000D02*
X162404999Y-87150000D01*
%TO.N,/CAM1_D0_N*%
X162405000Y-85650000D02*
X158230000Y-85650000D01*
X158230000Y-85650000D02*
X157690000Y-86190000D01*
%TO.N,/CAM1_SDA*%
X148850000Y-93150000D02*
X162405000Y-93150000D01*
X144071000Y-86010000D02*
X144070000Y-86011000D01*
X144070000Y-90180000D02*
X144190000Y-90300000D01*
X145860000Y-93180000D02*
X148840000Y-93180000D01*
X145161000Y-92481000D02*
X145860000Y-93180000D01*
X148840000Y-93180000D02*
X148840000Y-93160000D01*
X144619000Y-91939000D02*
X144808943Y-91939000D01*
X144808943Y-91939000D02*
X145161000Y-92291057D01*
X145161000Y-92291057D02*
X145161000Y-92481000D01*
X144190000Y-90300000D02*
X144190000Y-91510000D01*
X144190000Y-91510000D02*
X144619000Y-91939000D01*
X148840000Y-93160000D02*
X148850000Y-93150000D01*
X144070000Y-86011000D02*
X144070000Y-90180000D01*
%TO.N,/CAM1_D2_N*%
X162405000Y-90150000D02*
X153140000Y-90150000D01*
X153140000Y-90150000D02*
X153110000Y-90120000D01*
%TO.N,/CAM1_C_N*%
X162405000Y-88650001D02*
X154819999Y-88650001D01*
X154819999Y-88650001D02*
X154750000Y-88720000D01*
%TO.N,/Pi_SPI_MOSI*%
X157441057Y-85589000D02*
X157723900Y-85589000D01*
X154149000Y-88471057D02*
X154501057Y-88119000D01*
X158063900Y-85249000D02*
X160723496Y-85249000D01*
X154769000Y-87691057D02*
X155121057Y-87339000D01*
X154769000Y-88119000D02*
X154769000Y-87691057D01*
X155121057Y-87339000D02*
X155429000Y-87339000D01*
X157142740Y-86492683D02*
X157089000Y-86438943D01*
X157089000Y-85941057D02*
X157441057Y-85589000D01*
X167940000Y-82933000D02*
X167940000Y-84040000D01*
X156029000Y-86644740D02*
X156381057Y-86292683D01*
X155781057Y-86879000D02*
X156029000Y-86879000D01*
X149830000Y-88930000D02*
X153480057Y-88930000D01*
X148030000Y-87130000D02*
X149830000Y-88930000D01*
X157078943Y-86492683D02*
X157142740Y-86492683D01*
X153821057Y-88589000D02*
X154149000Y-88589000D01*
X156029000Y-86879000D02*
X156029000Y-86644740D01*
X156878943Y-86292683D02*
X157078943Y-86492683D01*
X167056000Y-82049000D02*
X167940000Y-82933000D01*
X148030000Y-85190000D02*
X148030000Y-87130000D01*
X160723496Y-85249000D02*
X163923496Y-82049000D01*
X157723900Y-85589000D02*
X158063900Y-85249000D01*
X163923496Y-82049000D02*
X167056000Y-82049000D01*
X154501057Y-88119000D02*
X154769000Y-88119000D01*
X156381057Y-86292683D02*
X156878943Y-86292683D01*
X154149000Y-88589000D02*
X154149000Y-88471057D01*
X153480057Y-88930000D02*
X153821057Y-88589000D01*
X155429000Y-87231057D02*
X155781057Y-86879000D01*
X157089000Y-86438943D02*
X157089000Y-85941057D01*
X155429000Y-87339000D02*
X155429000Y-87231057D01*
%TO.N,/Pi_SPI_CS*%
X162140200Y-82849000D02*
X148230000Y-82849000D01*
X189091200Y-109788800D02*
X189110000Y-109770000D01*
X206840000Y-109800000D02*
X189091200Y-109800000D01*
X160628012Y-84361188D02*
X162140200Y-82849000D01*
X160628012Y-84494541D02*
X160628012Y-84361188D01*
X189091200Y-109800000D02*
X189091200Y-109788800D01*
%TO.N,+5V_BOOST*%
X122221000Y-104089526D02*
X144080526Y-82230000D01*
X149430000Y-82249000D02*
X149411000Y-82230000D01*
X144080526Y-82230000D02*
X144420000Y-82230000D01*
X121070000Y-106859999D02*
X122221000Y-105708999D01*
X122221000Y-105708999D02*
X122221000Y-104089526D01*
X149411000Y-82230000D02*
X144420000Y-82230000D01*
%TO.N,/ENC_A*%
X171300000Y-101420000D02*
X186130000Y-86590000D01*
X150560735Y-98470735D02*
X153510000Y-101420000D01*
X153510000Y-101420000D02*
X171300000Y-101420000D01*
X150560735Y-95220735D02*
X150560735Y-98470735D01*
X186130000Y-86590000D02*
X186880000Y-86590000D01*
%TO.N,/ENC_B*%
X172498943Y-101821000D02*
X204900000Y-69419943D01*
X148965735Y-97442835D02*
X153343900Y-101821000D01*
X153343900Y-101821000D02*
X172498943Y-101821000D01*
X204900000Y-69419943D02*
X204900000Y-58840000D01*
X148965735Y-96815735D02*
X148965735Y-97442835D01*
%TO.N,/ENC2_A*%
X209829000Y-68938892D02*
X209829000Y-67201000D01*
X145660000Y-96792900D02*
X152356100Y-103489000D01*
X209829000Y-67201000D02*
X211130000Y-65900000D01*
X145660000Y-96499000D02*
X145660000Y-96792900D01*
X175278892Y-103489000D02*
X209829000Y-68938892D01*
X152356100Y-103489000D02*
X175278892Y-103489000D01*
%TO.N,/ENC2_B*%
X174818500Y-103088000D02*
X204616500Y-73290000D01*
X147481000Y-98046800D02*
X152522200Y-103088000D01*
X152522200Y-103088000D02*
X174818500Y-103088000D01*
X145640000Y-95300000D02*
X147481000Y-97141000D01*
X147481000Y-97141000D02*
X147481000Y-98046800D01*
%TO.N,/GPIO_SHUTTER*%
X174849057Y-57931000D02*
X224199000Y-57931000D01*
X156664000Y-77104000D02*
X156664000Y-76116057D01*
X224199000Y-57931000D02*
X225500000Y-56630000D01*
X157220000Y-77660000D02*
X156664000Y-77104000D01*
X156664000Y-76116057D02*
X174849057Y-57931000D01*
%TO.N,/GPIO_MENU*%
X152190000Y-103890000D02*
X192530057Y-103890000D01*
X225520057Y-70900000D02*
X225630000Y-70900000D01*
X144842251Y-96542251D02*
X152190000Y-103890000D01*
X144842251Y-95360000D02*
X144842251Y-96542251D01*
X192530057Y-103890000D02*
X225520057Y-70900000D01*
%TO.N,/GPIO_LEDring*%
X122574426Y-103169000D02*
X144114426Y-81629000D01*
X121070000Y-109399999D02*
X119919000Y-108248999D01*
X120593240Y-103169000D02*
X122574426Y-103169000D01*
X119919000Y-103843240D02*
X120593240Y-103169000D01*
X152880000Y-81629000D02*
X153250000Y-81999000D01*
X144114426Y-81629000D02*
X152880000Y-81629000D01*
X119919000Y-108248999D02*
X119919000Y-103843240D01*
%TD*%
M02*
