%TF.GenerationSoftware,KiCad,Pcbnew,9.0.7*%
%TF.CreationDate,2026-09-08T18:45:36+05:30*%
%TF.ProjectId,eiko,65696b6f-2e6b-4696-9361-645f70636258,rev?*%
%TF.SameCoordinates,Original*%
%TF.FileFunction,Profile,NP*%
%FSLAX46Y46*%
G04 Gerber Fmt 4.6, Leading zero omitted, Abs format (unit mm)*
G04 Created by KiCad (PCBNEW 9.0.7) date 2026-09-08 18:45:36*
%MOMM*%
%LPD*%
G01*
G04 APERTURE LIST*
%TA.AperFunction,Profile*%
%ADD10C,0.050000*%
%TD*%
%ADD11C,0.150000*%
G04 APERTURE END LIST*
D10*
X118320000Y-45820000D02*
X229170000Y-45820000D01*
X229170000Y-119930000D01*
X118320000Y-119930000D01*
X118320000Y-45820000D01*
D11*
X169378152Y-118769999D02*
X170044819Y-118769999D01*
X168997200Y-119008094D02*
X169711485Y-119246189D01*
X169711485Y-119246189D02*
X169711485Y-118627142D01*
X169949580Y-118246189D02*
X169997200Y-118198570D01*
X169997200Y-118198570D02*
X170044819Y-118246189D01*
X170044819Y-118246189D02*
X169997200Y-118293808D01*
X169997200Y-118293808D02*
X169949580Y-118246189D01*
X169949580Y-118246189D02*
X170044819Y-118246189D01*
X169044819Y-117865237D02*
X169044819Y-117246190D01*
X169044819Y-117246190D02*
X169425771Y-117579523D01*
X169425771Y-117579523D02*
X169425771Y-117436666D01*
X169425771Y-117436666D02*
X169473390Y-117341428D01*
X169473390Y-117341428D02*
X169521009Y-117293809D01*
X169521009Y-117293809D02*
X169616247Y-117246190D01*
X169616247Y-117246190D02*
X169854342Y-117246190D01*
X169854342Y-117246190D02*
X169949580Y-117293809D01*
X169949580Y-117293809D02*
X169997200Y-117341428D01*
X169997200Y-117341428D02*
X170044819Y-117436666D01*
X170044819Y-117436666D02*
X170044819Y-117722380D01*
X170044819Y-117722380D02*
X169997200Y-117817618D01*
X169997200Y-117817618D02*
X169949580Y-117865237D01*
X169140057Y-116865237D02*
X169092438Y-116817618D01*
X169092438Y-116817618D02*
X169044819Y-116722380D01*
X169044819Y-116722380D02*
X169044819Y-116484285D01*
X169044819Y-116484285D02*
X169092438Y-116389047D01*
X169092438Y-116389047D02*
X169140057Y-116341428D01*
X169140057Y-116341428D02*
X169235295Y-116293809D01*
X169235295Y-116293809D02*
X169330533Y-116293809D01*
X169330533Y-116293809D02*
X169473390Y-116341428D01*
X169473390Y-116341428D02*
X170044819Y-116912856D01*
X170044819Y-116912856D02*
X170044819Y-116293809D01*
D10*
X192280000Y-115610000D02*
X170153580Y-115610000D01*
X170153580Y-119930000D02*
X192330000Y-119930000D01*
X170740000Y-115610000D02*
X170740000Y-119930000D01*
X170740000Y-115610000D02*
X171326421Y-116736504D01*
X170740000Y-115610000D02*
X170153579Y-116736504D01*
X170740000Y-119930000D02*
X170153579Y-118803496D01*
X170740000Y-119930000D02*
X171326421Y-118803496D01*
M02*
