%TF.GenerationSoftware,KiCad,Pcbnew,9.0.7*%
%TF.CreationDate,2026-09-08T18:45:42+05:30*%
%TF.ProjectId,eiko,65696b6f-2e6b-4696-9361-645f70636258,rev?*%
%TF.SameCoordinates,Original*%
%TF.FileFunction,Plated,1,2,PTH,Mixed*%
%TF.FilePolarity,Positive*%
%FSLAX46Y46*%
G04 Gerber Fmt 4.6, Leading zero omitted, Abs format (unit mm)*
G04 Created by KiCad (PCBNEW 9.0.7) date 2026-09-08 18:45:42*
%MOMM*%
%LPD*%
G01*
G04 APERTURE LIST*
%TA.AperFunction,ViaDrill*%
%ADD10C,0.300000*%
%TD*%
G04 aperture for slot hole*
%TA.AperFunction,ComponentDrill*%
%ADD11C,0.600000*%
%TD*%
%TA.AperFunction,ComponentDrill*%
%ADD12C,0.750000*%
%TD*%
%TA.AperFunction,ComponentDrill*%
%ADD13C,1.000000*%
%TD*%
G04 aperture for slot hole*
%TA.AperFunction,ComponentDrill*%
%ADD14C,1.500000*%
%TD*%
G04 APERTURE END LIST*
D10*
X123050000Y-98490000D03*
X123370000Y-55430000D03*
X125890000Y-65990000D03*
X142622137Y-84538332D03*
X143470000Y-85320000D03*
X144071000Y-86010000D03*
X144337794Y-92469022D03*
X144420000Y-82230000D03*
X144842251Y-95360000D03*
X145640000Y-95300000D03*
X145660000Y-96499000D03*
X148030000Y-85190000D03*
X148230000Y-82849000D03*
X148965735Y-96815735D03*
X149430000Y-82249000D03*
X150560735Y-95220735D03*
X151830000Y-92460000D03*
X152170000Y-91650000D03*
X152540000Y-90770000D03*
X153110000Y-90120000D03*
X153250000Y-81999000D03*
X154070000Y-89190000D03*
X154750000Y-88720000D03*
X155370000Y-87940000D03*
X156030000Y-87480000D03*
X156630000Y-86893683D03*
X157220000Y-77660000D03*
X157265000Y-76365000D03*
X157690000Y-86190000D03*
X160321235Y-81630235D03*
X160628012Y-84494541D03*
X161439265Y-82209265D03*
X163240000Y-94530000D03*
X163450513Y-83370513D03*
X164510000Y-93130000D03*
X167940000Y-84040000D03*
X186880000Y-86590000D03*
X189110000Y-109770000D03*
X203810000Y-117930000D03*
X204070000Y-96310000D03*
X204616500Y-73290000D03*
X204900000Y-58840000D03*
X205410000Y-116650000D03*
X205470000Y-113300000D03*
X206840000Y-109800000D03*
X212547411Y-87945425D03*
X214040000Y-90270000D03*
X215100000Y-91250000D03*
X217320000Y-79950000D03*
X217320000Y-82040000D03*
X218270000Y-116850000D03*
D11*
%TO.C,J101*%
X215650000Y-113275000D02*
X215650000Y-113875000D01*
X215650000Y-117205000D02*
X215650000Y-118305000D01*
X224290000Y-113275000D02*
X224290000Y-113875000D01*
X224290000Y-117205000D02*
X224290000Y-118305000D01*
D12*
%TO.C,J102*%
X219820000Y-97310000D03*
X221820000Y-97310000D03*
D13*
%TO.C,J104-ledrgbring*%
X121070000Y-101779999D03*
X121070000Y-104320000D03*
X121070000Y-106859999D03*
X121070000Y-109399999D03*
%TO.C,J108*%
X122740000Y-57980000D03*
X122740000Y-60520000D03*
X122740000Y-63060000D03*
X122740000Y-65600000D03*
X122740000Y-68140000D03*
X122740000Y-70680000D03*
X122740000Y-73220000D03*
X122740000Y-75760000D03*
X122740000Y-78300000D03*
%TO.C,SW101*%
X211000000Y-51630000D03*
X211000000Y-54130000D03*
X211000000Y-56630000D03*
%TO.C,SW102*%
X211130000Y-65900000D03*
X211130000Y-68400000D03*
X211130000Y-70900000D03*
%TO.C,SW101*%
X225500000Y-51630000D03*
X225500000Y-56630000D03*
%TO.C,SW102*%
X225630000Y-65900000D03*
X225630000Y-70900000D03*
D14*
%TO.C,SW101*%
X219150000Y-48530000D02*
X217850000Y-48530000D01*
X219150000Y-59730000D02*
X217850000Y-59730000D01*
%TO.C,SW102*%
X219280000Y-62800000D02*
X217980000Y-62800000D01*
X219280000Y-74000000D02*
X217980000Y-74000000D01*
M02*
