%TF.GenerationSoftware,KiCad,Pcbnew,9.0.7*%
%TF.CreationDate,2026-09-08T18:45:36+05:30*%
%TF.ProjectId,eiko,65696b6f-2e6b-4696-9361-645f70636258,rev?*%
%TF.SameCoordinates,Original*%
%TF.FileFunction,Paste,Top*%
%TF.FilePolarity,Positive*%
%FSLAX46Y46*%
G04 Gerber Fmt 4.6, Leading zero omitted, Abs format (unit mm)*
G04 Created by KiCad (PCBNEW 9.0.7) date 2026-09-08 18:45:36*
%MOMM*%
%LPD*%
G01*
G04 APERTURE LIST*
G04 Aperture macros list*
%AMRoundRect*
0 Rectangle with rounded corners*
0 $1 Rounding radius*
0 $2 $3 $4 $5 $6 $7 $8 $9 X,Y pos of 4 corners*
0 Add a 4 corners polygon primitive as box body*
4,1,4,$2,$3,$4,$5,$6,$7,$8,$9,$2,$3,0*
0 Add four circle primitives for the rounded corners*
1,1,$1+$1,$2,$3*
1,1,$1+$1,$4,$5*
1,1,$1+$1,$6,$7*
1,1,$1+$1,$8,$9*
0 Add four rect primitives between the rounded corners*
20,1,$1+$1,$2,$3,$4,$5,0*
20,1,$1+$1,$4,$5,$6,$7,0*
20,1,$1+$1,$6,$7,$8,$9,0*
20,1,$1+$1,$8,$9,$2,$3,0*%
G04 Aperture macros list end*
%ADD10C,0.010000*%
%ADD11RoundRect,0.237500X-0.300000X-0.237500X0.300000X-0.237500X0.300000X0.237500X-0.300000X0.237500X0*%
%ADD12RoundRect,0.237500X-0.250000X-0.237500X0.250000X-0.237500X0.250000X0.237500X-0.250000X0.237500X0*%
%ADD13RoundRect,0.250000X-0.670000X-0.645000X0.670000X-0.645000X0.670000X0.645000X-0.670000X0.645000X0*%
%ADD14RoundRect,0.175000X-1.250000X-0.175000X1.250000X-0.175000X1.250000X0.175000X-1.250000X0.175000X0*%
%ADD15R,0.800000X1.500000*%
%ADD16R,1.450000X2.000000*%
%ADD17R,0.600000X1.450000*%
%ADD18R,0.300000X1.450000*%
%ADD19RoundRect,0.150000X-0.512500X-0.150000X0.512500X-0.150000X0.512500X0.150000X-0.512500X0.150000X0*%
G04 APERTURE END LIST*
D10*
%TO.C,U107*%
X140519500Y-80707000D02*
X140519500Y-81333000D01*
X140340500Y-81333000D01*
X140340500Y-80706999D01*
X140519500Y-80707000D01*
G36*
X140519500Y-80707000D02*
G01*
X140519500Y-81333000D01*
X140340500Y-81333000D01*
X140340500Y-80706999D01*
X140519500Y-80707000D01*
G37*
X140519500Y-84413000D02*
X140340500Y-84413000D01*
X140340500Y-83787000D01*
X140519500Y-83787000D01*
X140519500Y-84413000D01*
G36*
X140519500Y-84413000D02*
G01*
X140340500Y-84413000D01*
X140340500Y-83787000D01*
X140519500Y-83787000D01*
X140519500Y-84413000D01*
G37*
X140519500Y-115333000D02*
X140340500Y-115333000D01*
X140340500Y-114707000D01*
X140519500Y-114707000D01*
X140519500Y-115333000D01*
G36*
X140519500Y-115333000D02*
G01*
X140340500Y-115333000D01*
X140340500Y-114707000D01*
X140519500Y-114707000D01*
X140519500Y-115333000D01*
G37*
X140519500Y-118413000D02*
X140340500Y-118413001D01*
X140340500Y-117787000D01*
X140519500Y-117787000D01*
X140519500Y-118413000D01*
G36*
X140519500Y-118413000D02*
G01*
X140340500Y-118413001D01*
X140340500Y-117787000D01*
X140519500Y-117787000D01*
X140519500Y-118413000D01*
G37*
X140919500Y-81333000D02*
X140740500Y-81333000D01*
X140740500Y-80707000D01*
X140919500Y-80706999D01*
X140919500Y-81333000D01*
G36*
X140919500Y-81333000D02*
G01*
X140740500Y-81333000D01*
X140740500Y-80707000D01*
X140919500Y-80706999D01*
X140919500Y-81333000D01*
G37*
X140919500Y-84413000D02*
X140740500Y-84413000D01*
X140740500Y-83787000D01*
X140919500Y-83787000D01*
X140919500Y-84413000D01*
G36*
X140919500Y-84413000D02*
G01*
X140740500Y-84413000D01*
X140740500Y-83787000D01*
X140919500Y-83787000D01*
X140919500Y-84413000D01*
G37*
X140919500Y-115333000D02*
X140740500Y-115333000D01*
X140740500Y-114707000D01*
X140919500Y-114707000D01*
X140919500Y-115333000D01*
G36*
X140919500Y-115333000D02*
G01*
X140740500Y-115333000D01*
X140740500Y-114707000D01*
X140919500Y-114707000D01*
X140919500Y-115333000D01*
G37*
X140919500Y-118413001D02*
X140740500Y-118413000D01*
X140740500Y-117787000D01*
X140919500Y-117787000D01*
X140919500Y-118413001D01*
G36*
X140919500Y-118413001D02*
G01*
X140740500Y-118413000D01*
X140740500Y-117787000D01*
X140919500Y-117787000D01*
X140919500Y-118413001D01*
G37*
X141319500Y-81333000D02*
X141140500Y-81333000D01*
X141140500Y-80707000D01*
X141319500Y-80707000D01*
X141319500Y-81333000D01*
G36*
X141319500Y-81333000D02*
G01*
X141140500Y-81333000D01*
X141140500Y-80707000D01*
X141319500Y-80707000D01*
X141319500Y-81333000D01*
G37*
X141319500Y-84413001D02*
X141140500Y-84413001D01*
X141140500Y-83787000D01*
X141319500Y-83787000D01*
X141319500Y-84413001D01*
G36*
X141319500Y-84413001D02*
G01*
X141140500Y-84413001D01*
X141140500Y-83787000D01*
X141319500Y-83787000D01*
X141319500Y-84413001D01*
G37*
X141319500Y-115333000D02*
X141140500Y-115333000D01*
X141140500Y-114706999D01*
X141319500Y-114706999D01*
X141319500Y-115333000D01*
G36*
X141319500Y-115333000D02*
G01*
X141140500Y-115333000D01*
X141140500Y-114706999D01*
X141319500Y-114706999D01*
X141319500Y-115333000D01*
G37*
X141319500Y-118413000D02*
X141140500Y-118413000D01*
X141140500Y-117787000D01*
X141319500Y-117787000D01*
X141319500Y-118413000D01*
G36*
X141319500Y-118413000D02*
G01*
X141140500Y-118413000D01*
X141140500Y-117787000D01*
X141319500Y-117787000D01*
X141319500Y-118413000D01*
G37*
X141719500Y-81333000D02*
X141540500Y-81333000D01*
X141540500Y-80707000D01*
X141719500Y-80707000D01*
X141719500Y-81333000D01*
G36*
X141719500Y-81333000D02*
G01*
X141540500Y-81333000D01*
X141540500Y-80707000D01*
X141719500Y-80707000D01*
X141719500Y-81333000D01*
G37*
X141719500Y-84413000D02*
X141540500Y-84413000D01*
X141540500Y-83787000D01*
X141719500Y-83787000D01*
X141719500Y-84413000D01*
G36*
X141719500Y-84413000D02*
G01*
X141540500Y-84413000D01*
X141540500Y-83787000D01*
X141719500Y-83787000D01*
X141719500Y-84413000D01*
G37*
X141719500Y-115333000D02*
X141540500Y-115333000D01*
X141540500Y-114707000D01*
X141719500Y-114707000D01*
X141719500Y-115333000D01*
G36*
X141719500Y-115333000D02*
G01*
X141540500Y-115333000D01*
X141540500Y-114707000D01*
X141719500Y-114707000D01*
X141719500Y-115333000D01*
G37*
X141719500Y-118413000D02*
X141540500Y-118413000D01*
X141540500Y-117787000D01*
X141719500Y-117787000D01*
X141719500Y-118413000D01*
G36*
X141719500Y-118413000D02*
G01*
X141540500Y-118413000D01*
X141540500Y-117787000D01*
X141719500Y-117787000D01*
X141719500Y-118413000D01*
G37*
X142119500Y-81333000D02*
X141940500Y-81333000D01*
X141940500Y-80706999D01*
X142119500Y-80706999D01*
X142119500Y-81333000D01*
G36*
X142119500Y-81333000D02*
G01*
X141940500Y-81333000D01*
X141940500Y-80706999D01*
X142119500Y-80706999D01*
X142119500Y-81333000D01*
G37*
X142119500Y-84413000D02*
X141940500Y-84413000D01*
X141940500Y-83787000D01*
X142119500Y-83787000D01*
X142119500Y-84413000D01*
G36*
X142119500Y-84413000D02*
G01*
X141940500Y-84413000D01*
X141940500Y-83787000D01*
X142119500Y-83787000D01*
X142119500Y-84413000D01*
G37*
X142119500Y-115333000D02*
X141940500Y-115333000D01*
X141940500Y-114707000D01*
X142119500Y-114707000D01*
X142119500Y-115333000D01*
G36*
X142119500Y-115333000D02*
G01*
X141940500Y-115333000D01*
X141940500Y-114707000D01*
X142119500Y-114707000D01*
X142119500Y-115333000D01*
G37*
X142119500Y-118413001D02*
X141940500Y-118413001D01*
X141940500Y-117787000D01*
X142119500Y-117787000D01*
X142119500Y-118413001D01*
G36*
X142119500Y-118413001D02*
G01*
X141940500Y-118413001D01*
X141940500Y-117787000D01*
X142119500Y-117787000D01*
X142119500Y-118413001D01*
G37*
X142519500Y-81333000D02*
X142340500Y-81333000D01*
X142340500Y-80707000D01*
X142519500Y-80707000D01*
X142519500Y-81333000D01*
G36*
X142519500Y-81333000D02*
G01*
X142340500Y-81333000D01*
X142340500Y-80707000D01*
X142519500Y-80707000D01*
X142519500Y-81333000D01*
G37*
X142519500Y-84413000D02*
X142340501Y-84413000D01*
X142340500Y-83787000D01*
X142519500Y-83787000D01*
X142519500Y-84413000D01*
G36*
X142519500Y-84413000D02*
G01*
X142340501Y-84413000D01*
X142340500Y-83787000D01*
X142519500Y-83787000D01*
X142519500Y-84413000D01*
G37*
X142519500Y-118413000D02*
X142340500Y-118413000D01*
X142340500Y-117787000D01*
X142519500Y-117787000D01*
X142519500Y-118413000D01*
G36*
X142519500Y-118413000D02*
G01*
X142340500Y-118413000D01*
X142340500Y-117787000D01*
X142519500Y-117787000D01*
X142519500Y-118413000D01*
G37*
X142519500Y-115333000D02*
X142340500Y-115333000D01*
X142340501Y-114707000D01*
X142519500Y-114707000D01*
X142519500Y-115333000D01*
G36*
X142519500Y-115333000D02*
G01*
X142340500Y-115333000D01*
X142340501Y-114707000D01*
X142519500Y-114707000D01*
X142519500Y-115333000D01*
G37*
X142919500Y-81333000D02*
X142740500Y-81333000D01*
X142740500Y-80707000D01*
X142919500Y-80707000D01*
X142919500Y-81333000D01*
G36*
X142919500Y-81333000D02*
G01*
X142740500Y-81333000D01*
X142740500Y-80707000D01*
X142919500Y-80707000D01*
X142919500Y-81333000D01*
G37*
X142919500Y-84413001D02*
X142740500Y-84413000D01*
X142740500Y-83787000D01*
X142919500Y-83787000D01*
X142919500Y-84413001D01*
G36*
X142919500Y-84413001D02*
G01*
X142740500Y-84413000D01*
X142740500Y-83787000D01*
X142919500Y-83787000D01*
X142919500Y-84413001D01*
G37*
X142919500Y-115333000D02*
X142740500Y-115333000D01*
X142740500Y-114707000D01*
X142919500Y-114706999D01*
X142919500Y-115333000D01*
G36*
X142919500Y-115333000D02*
G01*
X142740500Y-115333000D01*
X142740500Y-114707000D01*
X142919500Y-114706999D01*
X142919500Y-115333000D01*
G37*
X142919500Y-118413000D02*
X142740500Y-118413000D01*
X142740500Y-117787000D01*
X142919500Y-117787000D01*
X142919500Y-118413000D01*
G36*
X142919500Y-118413000D02*
G01*
X142740500Y-118413000D01*
X142740500Y-117787000D01*
X142919500Y-117787000D01*
X142919500Y-118413000D01*
G37*
X143319500Y-81333000D02*
X143140500Y-81333000D01*
X143140500Y-80706999D01*
X143319500Y-80706999D01*
X143319500Y-81333000D01*
G36*
X143319500Y-81333000D02*
G01*
X143140500Y-81333000D01*
X143140500Y-80706999D01*
X143319500Y-80706999D01*
X143319500Y-81333000D01*
G37*
X143319500Y-84413000D02*
X143140500Y-84413000D01*
X143140500Y-83787000D01*
X143319500Y-83787000D01*
X143319500Y-84413000D01*
G36*
X143319500Y-84413000D02*
G01*
X143140500Y-84413000D01*
X143140500Y-83787000D01*
X143319500Y-83787000D01*
X143319500Y-84413000D01*
G37*
X143319500Y-115333000D02*
X143140500Y-115333000D01*
X143140500Y-114707000D01*
X143319500Y-114707000D01*
X143319500Y-115333000D01*
G36*
X143319500Y-115333000D02*
G01*
X143140500Y-115333000D01*
X143140500Y-114707000D01*
X143319500Y-114707000D01*
X143319500Y-115333000D01*
G37*
X143319500Y-118413001D02*
X143140500Y-118413001D01*
X143140500Y-117787000D01*
X143319500Y-117787000D01*
X143319500Y-118413001D01*
G36*
X143319500Y-118413001D02*
G01*
X143140500Y-118413001D01*
X143140500Y-117787000D01*
X143319500Y-117787000D01*
X143319500Y-118413001D01*
G37*
X143719500Y-81333000D02*
X143540500Y-81333000D01*
X143540500Y-80707000D01*
X143719500Y-80707000D01*
X143719500Y-81333000D01*
G36*
X143719500Y-81333000D02*
G01*
X143540500Y-81333000D01*
X143540500Y-80707000D01*
X143719500Y-80707000D01*
X143719500Y-81333000D01*
G37*
X143719500Y-84413000D02*
X143540500Y-84413000D01*
X143540500Y-83787000D01*
X143719500Y-83787000D01*
X143719500Y-84413000D01*
G36*
X143719500Y-84413000D02*
G01*
X143540500Y-84413000D01*
X143540500Y-83787000D01*
X143719500Y-83787000D01*
X143719500Y-84413000D01*
G37*
X143719500Y-115333000D02*
X143540500Y-115333000D01*
X143540500Y-114707000D01*
X143719500Y-114707000D01*
X143719500Y-115333000D01*
G36*
X143719500Y-115333000D02*
G01*
X143540500Y-115333000D01*
X143540500Y-114707000D01*
X143719500Y-114707000D01*
X143719500Y-115333000D01*
G37*
X143719500Y-118413000D02*
X143540500Y-118413000D01*
X143540500Y-117787000D01*
X143719500Y-117787000D01*
X143719500Y-118413000D01*
G36*
X143719500Y-118413000D02*
G01*
X143540500Y-118413000D01*
X143540500Y-117787000D01*
X143719500Y-117787000D01*
X143719500Y-118413000D01*
G37*
X144119500Y-81333000D02*
X143940500Y-81333000D01*
X143940500Y-80707000D01*
X144119500Y-80707000D01*
X144119500Y-81333000D01*
G36*
X144119500Y-81333000D02*
G01*
X143940500Y-81333000D01*
X143940500Y-80707000D01*
X144119500Y-80707000D01*
X144119500Y-81333000D01*
G37*
X144119500Y-84413001D02*
X143940500Y-84413001D01*
X143940500Y-83787000D01*
X144119500Y-83787000D01*
X144119500Y-84413001D01*
G36*
X144119500Y-84413001D02*
G01*
X143940500Y-84413001D01*
X143940500Y-83787000D01*
X144119500Y-83787000D01*
X144119500Y-84413001D01*
G37*
X144119500Y-115333000D02*
X143940500Y-115333000D01*
X143940500Y-114706999D01*
X144119500Y-114706999D01*
X144119500Y-115333000D01*
G36*
X144119500Y-115333000D02*
G01*
X143940500Y-115333000D01*
X143940500Y-114706999D01*
X144119500Y-114706999D01*
X144119500Y-115333000D01*
G37*
X144119500Y-118413000D02*
X143940500Y-118413000D01*
X143940500Y-117787000D01*
X144119500Y-117787000D01*
X144119500Y-118413000D01*
G36*
X144119500Y-118413000D02*
G01*
X143940500Y-118413000D01*
X143940500Y-117787000D01*
X144119500Y-117787000D01*
X144119500Y-118413000D01*
G37*
X144519500Y-81333000D02*
X144340500Y-81333000D01*
X144340500Y-80707000D01*
X144519500Y-80707000D01*
X144519500Y-81333000D01*
G36*
X144519500Y-81333000D02*
G01*
X144340500Y-81333000D01*
X144340500Y-80707000D01*
X144519500Y-80707000D01*
X144519500Y-81333000D01*
G37*
X144519500Y-84413000D02*
X144340500Y-84413000D01*
X144340500Y-83787000D01*
X144519500Y-83787000D01*
X144519500Y-84413000D01*
G36*
X144519500Y-84413000D02*
G01*
X144340500Y-84413000D01*
X144340500Y-83787000D01*
X144519500Y-83787000D01*
X144519500Y-84413000D01*
G37*
X144519500Y-115333000D02*
X144340500Y-115333000D01*
X144340500Y-114707000D01*
X144519500Y-114707000D01*
X144519500Y-115333000D01*
G36*
X144519500Y-115333000D02*
G01*
X144340500Y-115333000D01*
X144340500Y-114707000D01*
X144519500Y-114707000D01*
X144519500Y-115333000D01*
G37*
X144519500Y-118413000D02*
X144340500Y-118413000D01*
X144340500Y-117787000D01*
X144519500Y-117787000D01*
X144519500Y-118413000D01*
G36*
X144519500Y-118413000D02*
G01*
X144340500Y-118413000D01*
X144340500Y-117787000D01*
X144519500Y-117787000D01*
X144519500Y-118413000D01*
G37*
X144919500Y-81333000D02*
X144740500Y-81333000D01*
X144740500Y-80706999D01*
X144919500Y-80706999D01*
X144919500Y-81333000D01*
G36*
X144919500Y-81333000D02*
G01*
X144740500Y-81333000D01*
X144740500Y-80706999D01*
X144919500Y-80706999D01*
X144919500Y-81333000D01*
G37*
X144919500Y-84413000D02*
X144740500Y-84413000D01*
X144740500Y-83787000D01*
X144919500Y-83787000D01*
X144919500Y-84413000D01*
G36*
X144919500Y-84413000D02*
G01*
X144740500Y-84413000D01*
X144740500Y-83787000D01*
X144919500Y-83787000D01*
X144919500Y-84413000D01*
G37*
X144919500Y-115333000D02*
X144740500Y-115333000D01*
X144740500Y-114707000D01*
X144919500Y-114707000D01*
X144919500Y-115333000D01*
G36*
X144919500Y-115333000D02*
G01*
X144740500Y-115333000D01*
X144740500Y-114707000D01*
X144919500Y-114707000D01*
X144919500Y-115333000D01*
G37*
X144919500Y-118413001D02*
X144740500Y-118413001D01*
X144740500Y-117787000D01*
X144919500Y-117787000D01*
X144919500Y-118413001D01*
G36*
X144919500Y-118413001D02*
G01*
X144740500Y-118413001D01*
X144740500Y-117787000D01*
X144919500Y-117787000D01*
X144919500Y-118413001D01*
G37*
X145319500Y-81333000D02*
X145140500Y-81333000D01*
X145140500Y-80707000D01*
X145319500Y-80707000D01*
X145319500Y-81333000D01*
G36*
X145319500Y-81333000D02*
G01*
X145140500Y-81333000D01*
X145140500Y-80707000D01*
X145319500Y-80707000D01*
X145319500Y-81333000D01*
G37*
X145319500Y-84413000D02*
X145140500Y-84413001D01*
X145140500Y-83787000D01*
X145319500Y-83787000D01*
X145319500Y-84413000D01*
G36*
X145319500Y-84413000D02*
G01*
X145140500Y-84413001D01*
X145140500Y-83787000D01*
X145319500Y-83787000D01*
X145319500Y-84413000D01*
G37*
X145319500Y-114707000D02*
X145319500Y-115333000D01*
X145140500Y-115333000D01*
X145140500Y-114706999D01*
X145319500Y-114707000D01*
G36*
X145319500Y-114707000D02*
G01*
X145319500Y-115333000D01*
X145140500Y-115333000D01*
X145140500Y-114706999D01*
X145319500Y-114707000D01*
G37*
X145319500Y-118413000D02*
X145140500Y-118413000D01*
X145140500Y-117787000D01*
X145319500Y-117787000D01*
X145319500Y-118413000D01*
G36*
X145319500Y-118413000D02*
G01*
X145140500Y-118413000D01*
X145140500Y-117787000D01*
X145319500Y-117787000D01*
X145319500Y-118413000D01*
G37*
X145719500Y-81333000D02*
X145540500Y-81333000D01*
X145540500Y-80707000D01*
X145719500Y-80707000D01*
X145719500Y-81333000D01*
G36*
X145719500Y-81333000D02*
G01*
X145540500Y-81333000D01*
X145540500Y-80707000D01*
X145719500Y-80707000D01*
X145719500Y-81333000D01*
G37*
X145719499Y-84413000D02*
X145540500Y-84413000D01*
X145540500Y-83787000D01*
X145719500Y-83787000D01*
X145719499Y-84413000D01*
G36*
X145719499Y-84413000D02*
G01*
X145540500Y-84413000D01*
X145540500Y-83787000D01*
X145719500Y-83787000D01*
X145719499Y-84413000D01*
G37*
X145719500Y-115333000D02*
X145540500Y-115333000D01*
X145540500Y-114707000D01*
X145719499Y-114707000D01*
X145719500Y-115333000D01*
G36*
X145719500Y-115333000D02*
G01*
X145540500Y-115333000D01*
X145540500Y-114707000D01*
X145719499Y-114707000D01*
X145719500Y-115333000D01*
G37*
X145719500Y-118413000D02*
X145540500Y-118413000D01*
X145540500Y-117787000D01*
X145719500Y-117787000D01*
X145719500Y-118413000D01*
G36*
X145719500Y-118413000D02*
G01*
X145540500Y-118413000D01*
X145540500Y-117787000D01*
X145719500Y-117787000D01*
X145719500Y-118413000D01*
G37*
X146119500Y-81333000D02*
X145940500Y-81333000D01*
X145940500Y-80706999D01*
X146119500Y-80706999D01*
X146119500Y-81333000D01*
G36*
X146119500Y-81333000D02*
G01*
X145940500Y-81333000D01*
X145940500Y-80706999D01*
X146119500Y-80706999D01*
X146119500Y-81333000D01*
G37*
X146119500Y-84413000D02*
X145940500Y-84413000D01*
X145940500Y-83787000D01*
X146119500Y-83787000D01*
X146119500Y-84413000D01*
G36*
X146119500Y-84413000D02*
G01*
X145940500Y-84413000D01*
X145940500Y-83787000D01*
X146119500Y-83787000D01*
X146119500Y-84413000D01*
G37*
X146119500Y-115333000D02*
X145940500Y-115333000D01*
X145940500Y-114707000D01*
X146119500Y-114707000D01*
X146119500Y-115333000D01*
G36*
X146119500Y-115333000D02*
G01*
X145940500Y-115333000D01*
X145940500Y-114707000D01*
X146119500Y-114707000D01*
X146119500Y-115333000D01*
G37*
X146119500Y-118413001D02*
X145940500Y-118413001D01*
X145940500Y-117787000D01*
X146119500Y-117787000D01*
X146119500Y-118413001D01*
G36*
X146119500Y-118413001D02*
G01*
X145940500Y-118413001D01*
X145940500Y-117787000D01*
X146119500Y-117787000D01*
X146119500Y-118413001D01*
G37*
X146519500Y-81333000D02*
X146340500Y-81333000D01*
X146340500Y-80707000D01*
X146519500Y-80707000D01*
X146519500Y-81333000D01*
G36*
X146519500Y-81333000D02*
G01*
X146340500Y-81333000D01*
X146340500Y-80707000D01*
X146519500Y-80707000D01*
X146519500Y-81333000D01*
G37*
X146519500Y-84413000D02*
X146340500Y-84413000D01*
X146340500Y-83787000D01*
X146519500Y-83787000D01*
X146519500Y-84413000D01*
G36*
X146519500Y-84413000D02*
G01*
X146340500Y-84413000D01*
X146340500Y-83787000D01*
X146519500Y-83787000D01*
X146519500Y-84413000D01*
G37*
X146519500Y-115333000D02*
X146340500Y-115333000D01*
X146340500Y-114707000D01*
X146519500Y-114707000D01*
X146519500Y-115333000D01*
G36*
X146519500Y-115333000D02*
G01*
X146340500Y-115333000D01*
X146340500Y-114707000D01*
X146519500Y-114707000D01*
X146519500Y-115333000D01*
G37*
X146519500Y-118413000D02*
X146340500Y-118413000D01*
X146340500Y-117787000D01*
X146519500Y-117787000D01*
X146519500Y-118413000D01*
G36*
X146519500Y-118413000D02*
G01*
X146340500Y-118413000D01*
X146340500Y-117787000D01*
X146519500Y-117787000D01*
X146519500Y-118413000D01*
G37*
X146919500Y-81333000D02*
X146740500Y-81333000D01*
X146740500Y-80707000D01*
X146919500Y-80707000D01*
X146919500Y-81333000D01*
G36*
X146919500Y-81333000D02*
G01*
X146740500Y-81333000D01*
X146740500Y-80707000D01*
X146919500Y-80707000D01*
X146919500Y-81333000D01*
G37*
X146919500Y-84413001D02*
X146740500Y-84413001D01*
X146740500Y-83787000D01*
X146919500Y-83787000D01*
X146919500Y-84413001D01*
G36*
X146919500Y-84413001D02*
G01*
X146740500Y-84413001D01*
X146740500Y-83787000D01*
X146919500Y-83787000D01*
X146919500Y-84413001D01*
G37*
X146919500Y-115333000D02*
X146740500Y-115333000D01*
X146740500Y-114706999D01*
X146919500Y-114706999D01*
X146919500Y-115333000D01*
G36*
X146919500Y-115333000D02*
G01*
X146740500Y-115333000D01*
X146740500Y-114706999D01*
X146919500Y-114706999D01*
X146919500Y-115333000D01*
G37*
X146919500Y-118413000D02*
X146740500Y-118413000D01*
X146740500Y-117787000D01*
X146919500Y-117787000D01*
X146919500Y-118413000D01*
G36*
X146919500Y-118413000D02*
G01*
X146740500Y-118413000D01*
X146740500Y-117787000D01*
X146919500Y-117787000D01*
X146919500Y-118413000D01*
G37*
X147319500Y-81333000D02*
X147140500Y-81333000D01*
X147140500Y-80707000D01*
X147319500Y-80707000D01*
X147319500Y-81333000D01*
G36*
X147319500Y-81333000D02*
G01*
X147140500Y-81333000D01*
X147140500Y-80707000D01*
X147319500Y-80707000D01*
X147319500Y-81333000D01*
G37*
X147319500Y-84413000D02*
X147140500Y-84413000D01*
X147140500Y-83787000D01*
X147319500Y-83787000D01*
X147319500Y-84413000D01*
G36*
X147319500Y-84413000D02*
G01*
X147140500Y-84413000D01*
X147140500Y-83787000D01*
X147319500Y-83787000D01*
X147319500Y-84413000D01*
G37*
X147319500Y-115333000D02*
X147140500Y-115333000D01*
X147140500Y-114707000D01*
X147319500Y-114707000D01*
X147319500Y-115333000D01*
G36*
X147319500Y-115333000D02*
G01*
X147140500Y-115333000D01*
X147140500Y-114707000D01*
X147319500Y-114707000D01*
X147319500Y-115333000D01*
G37*
X147319500Y-118413000D02*
X147140500Y-118413000D01*
X147140500Y-117787000D01*
X147319500Y-117787000D01*
X147319500Y-118413000D01*
G36*
X147319500Y-118413000D02*
G01*
X147140500Y-118413000D01*
X147140500Y-117787000D01*
X147319500Y-117787000D01*
X147319500Y-118413000D01*
G37*
X147719500Y-81333000D02*
X147540500Y-81333000D01*
X147540500Y-80706999D01*
X147719500Y-80706999D01*
X147719500Y-81333000D01*
G36*
X147719500Y-81333000D02*
G01*
X147540500Y-81333000D01*
X147540500Y-80706999D01*
X147719500Y-80706999D01*
X147719500Y-81333000D01*
G37*
X147719500Y-84413000D02*
X147540500Y-84413000D01*
X147540500Y-83787000D01*
X147719500Y-83787000D01*
X147719500Y-84413000D01*
G36*
X147719500Y-84413000D02*
G01*
X147540500Y-84413000D01*
X147540500Y-83787000D01*
X147719500Y-83787000D01*
X147719500Y-84413000D01*
G37*
X147719500Y-115333000D02*
X147540500Y-115333000D01*
X147540500Y-114707000D01*
X147719500Y-114707000D01*
X147719500Y-115333000D01*
G36*
X147719500Y-115333000D02*
G01*
X147540500Y-115333000D01*
X147540500Y-114707000D01*
X147719500Y-114707000D01*
X147719500Y-115333000D01*
G37*
X147719500Y-118413001D02*
X147540500Y-118413001D01*
X147540500Y-117787000D01*
X147719500Y-117787000D01*
X147719500Y-118413001D01*
G36*
X147719500Y-118413001D02*
G01*
X147540500Y-118413001D01*
X147540500Y-117787000D01*
X147719500Y-117787000D01*
X147719500Y-118413001D01*
G37*
X148119500Y-81333000D02*
X147940500Y-81333000D01*
X147940500Y-80707000D01*
X148119500Y-80707000D01*
X148119500Y-81333000D01*
G36*
X148119500Y-81333000D02*
G01*
X147940500Y-81333000D01*
X147940500Y-80707000D01*
X148119500Y-80707000D01*
X148119500Y-81333000D01*
G37*
X148119500Y-84413000D02*
X147940500Y-84413001D01*
X147940500Y-83787000D01*
X148119500Y-83787000D01*
X148119500Y-84413000D01*
G36*
X148119500Y-84413000D02*
G01*
X147940500Y-84413001D01*
X147940500Y-83787000D01*
X148119500Y-83787000D01*
X148119500Y-84413000D01*
G37*
X148119500Y-114707000D02*
X148119500Y-115333000D01*
X147940500Y-115333000D01*
X147940500Y-114706999D01*
X148119500Y-114707000D01*
G36*
X148119500Y-114707000D02*
G01*
X148119500Y-115333000D01*
X147940500Y-115333000D01*
X147940500Y-114706999D01*
X148119500Y-114707000D01*
G37*
X148119500Y-118413000D02*
X147940500Y-118413000D01*
X147940500Y-117787000D01*
X148119500Y-117787000D01*
X148119500Y-118413000D01*
G36*
X148119500Y-118413000D02*
G01*
X147940500Y-118413000D01*
X147940500Y-117787000D01*
X148119500Y-117787000D01*
X148119500Y-118413000D01*
G37*
X148519500Y-81333000D02*
X148340500Y-81333000D01*
X148340500Y-80707000D01*
X148519500Y-80707000D01*
X148519500Y-81333000D01*
G36*
X148519500Y-81333000D02*
G01*
X148340500Y-81333000D01*
X148340500Y-80707000D01*
X148519500Y-80707000D01*
X148519500Y-81333000D01*
G37*
X148519499Y-84413000D02*
X148340500Y-84413000D01*
X148340500Y-83787000D01*
X148519500Y-83787000D01*
X148519499Y-84413000D01*
G36*
X148519499Y-84413000D02*
G01*
X148340500Y-84413000D01*
X148340500Y-83787000D01*
X148519500Y-83787000D01*
X148519499Y-84413000D01*
G37*
X148519500Y-115333000D02*
X148340500Y-115333000D01*
X148340500Y-114707000D01*
X148519499Y-114707000D01*
X148519500Y-115333000D01*
G36*
X148519500Y-115333000D02*
G01*
X148340500Y-115333000D01*
X148340500Y-114707000D01*
X148519499Y-114707000D01*
X148519500Y-115333000D01*
G37*
X148519500Y-118413000D02*
X148340500Y-118413000D01*
X148340500Y-117787000D01*
X148519500Y-117787000D01*
X148519500Y-118413000D01*
G36*
X148519500Y-118413000D02*
G01*
X148340500Y-118413000D01*
X148340500Y-117787000D01*
X148519500Y-117787000D01*
X148519500Y-118413000D01*
G37*
X148919500Y-81333000D02*
X148740500Y-81333000D01*
X148740500Y-80706999D01*
X148919500Y-80706999D01*
X148919500Y-81333000D01*
G36*
X148919500Y-81333000D02*
G01*
X148740500Y-81333000D01*
X148740500Y-80706999D01*
X148919500Y-80706999D01*
X148919500Y-81333000D01*
G37*
X148919500Y-84413000D02*
X148740500Y-84413000D01*
X148740500Y-83787000D01*
X148919500Y-83787000D01*
X148919500Y-84413000D01*
G36*
X148919500Y-84413000D02*
G01*
X148740500Y-84413000D01*
X148740500Y-83787000D01*
X148919500Y-83787000D01*
X148919500Y-84413000D01*
G37*
X148919500Y-115333000D02*
X148740500Y-115333000D01*
X148740500Y-114707000D01*
X148919500Y-114707000D01*
X148919500Y-115333000D01*
G36*
X148919500Y-115333000D02*
G01*
X148740500Y-115333000D01*
X148740500Y-114707000D01*
X148919500Y-114707000D01*
X148919500Y-115333000D01*
G37*
X148919500Y-118413001D02*
X148740500Y-118413001D01*
X148740500Y-117787000D01*
X148919500Y-117787000D01*
X148919500Y-118413001D01*
G36*
X148919500Y-118413001D02*
G01*
X148740500Y-118413001D01*
X148740500Y-117787000D01*
X148919500Y-117787000D01*
X148919500Y-118413001D01*
G37*
X149319500Y-81333000D02*
X149140500Y-81333000D01*
X149140500Y-80707000D01*
X149319500Y-80707000D01*
X149319500Y-81333000D01*
G36*
X149319500Y-81333000D02*
G01*
X149140500Y-81333000D01*
X149140500Y-80707000D01*
X149319500Y-80707000D01*
X149319500Y-81333000D01*
G37*
X149319500Y-84413000D02*
X149140500Y-84413000D01*
X149140500Y-83787000D01*
X149319500Y-83787000D01*
X149319500Y-84413000D01*
G36*
X149319500Y-84413000D02*
G01*
X149140500Y-84413000D01*
X149140500Y-83787000D01*
X149319500Y-83787000D01*
X149319500Y-84413000D01*
G37*
X149319500Y-115333000D02*
X149140500Y-115333000D01*
X149140500Y-114707000D01*
X149319500Y-114707000D01*
X149319500Y-115333000D01*
G36*
X149319500Y-115333000D02*
G01*
X149140500Y-115333000D01*
X149140500Y-114707000D01*
X149319500Y-114707000D01*
X149319500Y-115333000D01*
G37*
X149319500Y-118413000D02*
X149140500Y-118413000D01*
X149140500Y-117787000D01*
X149319500Y-117787000D01*
X149319500Y-118413000D01*
G36*
X149319500Y-118413000D02*
G01*
X149140500Y-118413000D01*
X149140500Y-117787000D01*
X149319500Y-117787000D01*
X149319500Y-118413000D01*
G37*
X149719500Y-81333000D02*
X149540500Y-81333000D01*
X149540500Y-80707000D01*
X149719500Y-80707000D01*
X149719500Y-81333000D01*
G36*
X149719500Y-81333000D02*
G01*
X149540500Y-81333000D01*
X149540500Y-80707000D01*
X149719500Y-80707000D01*
X149719500Y-81333000D01*
G37*
X149719500Y-84413001D02*
X149540500Y-84413001D01*
X149540500Y-83787000D01*
X149719500Y-83787000D01*
X149719500Y-84413001D01*
G36*
X149719500Y-84413001D02*
G01*
X149540500Y-84413001D01*
X149540500Y-83787000D01*
X149719500Y-83787000D01*
X149719500Y-84413001D01*
G37*
X149719500Y-115333000D02*
X149540500Y-115333000D01*
X149540500Y-114706999D01*
X149719500Y-114706999D01*
X149719500Y-115333000D01*
G36*
X149719500Y-115333000D02*
G01*
X149540500Y-115333000D01*
X149540500Y-114706999D01*
X149719500Y-114706999D01*
X149719500Y-115333000D01*
G37*
X149719500Y-118413000D02*
X149540500Y-118413000D01*
X149540500Y-117787000D01*
X149719500Y-117787000D01*
X149719500Y-118413000D01*
G36*
X149719500Y-118413000D02*
G01*
X149540500Y-118413000D01*
X149540500Y-117787000D01*
X149719500Y-117787000D01*
X149719500Y-118413000D01*
G37*
X150119500Y-80707000D02*
X150119500Y-81333000D01*
X149940500Y-81333000D01*
X149940500Y-80706999D01*
X150119500Y-80707000D01*
G36*
X150119500Y-80707000D02*
G01*
X150119500Y-81333000D01*
X149940500Y-81333000D01*
X149940500Y-80706999D01*
X150119500Y-80707000D01*
G37*
X150119500Y-84413000D02*
X149940500Y-84413000D01*
X149940500Y-83787000D01*
X150119500Y-83787000D01*
X150119500Y-84413000D01*
G36*
X150119500Y-84413000D02*
G01*
X149940500Y-84413000D01*
X149940500Y-83787000D01*
X150119500Y-83787000D01*
X150119500Y-84413000D01*
G37*
X150119500Y-115333000D02*
X149940500Y-115333000D01*
X149940500Y-114707000D01*
X150119500Y-114707000D01*
X150119500Y-115333000D01*
G36*
X150119500Y-115333000D02*
G01*
X149940500Y-115333000D01*
X149940500Y-114707000D01*
X150119500Y-114707000D01*
X150119500Y-115333000D01*
G37*
X150119500Y-118413000D02*
X149940500Y-118413001D01*
X149940500Y-117787000D01*
X150119500Y-117787000D01*
X150119500Y-118413000D01*
G36*
X150119500Y-118413000D02*
G01*
X149940500Y-118413001D01*
X149940500Y-117787000D01*
X150119500Y-117787000D01*
X150119500Y-118413000D01*
G37*
X150519500Y-81333000D02*
X150340500Y-81333000D01*
X150340500Y-80707000D01*
X150519500Y-80706999D01*
X150519500Y-81333000D01*
G36*
X150519500Y-81333000D02*
G01*
X150340500Y-81333000D01*
X150340500Y-80707000D01*
X150519500Y-80706999D01*
X150519500Y-81333000D01*
G37*
X150519500Y-84413000D02*
X150340500Y-84413000D01*
X150340500Y-83787000D01*
X150519500Y-83787000D01*
X150519500Y-84413000D01*
G36*
X150519500Y-84413000D02*
G01*
X150340500Y-84413000D01*
X150340500Y-83787000D01*
X150519500Y-83787000D01*
X150519500Y-84413000D01*
G37*
X150519500Y-115333000D02*
X150340500Y-115333000D01*
X150340500Y-114707000D01*
X150519500Y-114707000D01*
X150519500Y-115333000D01*
G36*
X150519500Y-115333000D02*
G01*
X150340500Y-115333000D01*
X150340500Y-114707000D01*
X150519500Y-114707000D01*
X150519500Y-115333000D01*
G37*
X150519500Y-118413001D02*
X150340500Y-118413000D01*
X150340500Y-117787000D01*
X150519500Y-117787000D01*
X150519500Y-118413001D01*
G36*
X150519500Y-118413001D02*
G01*
X150340500Y-118413000D01*
X150340500Y-117787000D01*
X150519500Y-117787000D01*
X150519500Y-118413001D01*
G37*
X150919500Y-81333000D02*
X150740500Y-81333000D01*
X150740500Y-80707000D01*
X150919500Y-80707000D01*
X150919500Y-81333000D01*
G36*
X150919500Y-81333000D02*
G01*
X150740500Y-81333000D01*
X150740500Y-80707000D01*
X150919500Y-80707000D01*
X150919500Y-81333000D01*
G37*
X150919500Y-84413000D02*
X150740500Y-84413001D01*
X150740500Y-83787000D01*
X150919500Y-83787000D01*
X150919500Y-84413000D01*
G36*
X150919500Y-84413000D02*
G01*
X150740500Y-84413001D01*
X150740500Y-83787000D01*
X150919500Y-83787000D01*
X150919500Y-84413000D01*
G37*
X150919500Y-114707000D02*
X150919500Y-115333000D01*
X150740500Y-115333000D01*
X150740500Y-114706999D01*
X150919500Y-114707000D01*
G36*
X150919500Y-114707000D02*
G01*
X150919500Y-115333000D01*
X150740500Y-115333000D01*
X150740500Y-114706999D01*
X150919500Y-114707000D01*
G37*
X150919500Y-118413000D02*
X150740500Y-118413000D01*
X150740500Y-117787000D01*
X150919500Y-117787000D01*
X150919500Y-118413000D01*
G36*
X150919500Y-118413000D02*
G01*
X150740500Y-118413000D01*
X150740500Y-117787000D01*
X150919500Y-117787000D01*
X150919500Y-118413000D01*
G37*
X151319500Y-81333000D02*
X151140500Y-81333000D01*
X151140500Y-80707000D01*
X151319500Y-80707000D01*
X151319500Y-81333000D01*
G36*
X151319500Y-81333000D02*
G01*
X151140500Y-81333000D01*
X151140500Y-80707000D01*
X151319500Y-80707000D01*
X151319500Y-81333000D01*
G37*
X151319499Y-84413000D02*
X151140500Y-84413000D01*
X151140500Y-83787000D01*
X151319500Y-83787000D01*
X151319499Y-84413000D01*
G36*
X151319499Y-84413000D02*
G01*
X151140500Y-84413000D01*
X151140500Y-83787000D01*
X151319500Y-83787000D01*
X151319499Y-84413000D01*
G37*
X151319500Y-115333000D02*
X151140500Y-115333000D01*
X151140500Y-114707000D01*
X151319499Y-114707000D01*
X151319500Y-115333000D01*
G36*
X151319500Y-115333000D02*
G01*
X151140500Y-115333000D01*
X151140500Y-114707000D01*
X151319499Y-114707000D01*
X151319500Y-115333000D01*
G37*
X151319500Y-118413000D02*
X151140500Y-118413000D01*
X151140500Y-117787000D01*
X151319500Y-117787000D01*
X151319500Y-118413000D01*
G36*
X151319500Y-118413000D02*
G01*
X151140500Y-118413000D01*
X151140500Y-117787000D01*
X151319500Y-117787000D01*
X151319500Y-118413000D01*
G37*
X151719500Y-81333000D02*
X151540500Y-81333000D01*
X151540500Y-80706999D01*
X151719500Y-80706999D01*
X151719500Y-81333000D01*
G36*
X151719500Y-81333000D02*
G01*
X151540500Y-81333000D01*
X151540500Y-80706999D01*
X151719500Y-80706999D01*
X151719500Y-81333000D01*
G37*
X151719500Y-84413000D02*
X151540500Y-84413000D01*
X151540500Y-83787000D01*
X151719500Y-83787000D01*
X151719500Y-84413000D01*
G36*
X151719500Y-84413000D02*
G01*
X151540500Y-84413000D01*
X151540500Y-83787000D01*
X151719500Y-83787000D01*
X151719500Y-84413000D01*
G37*
X151719500Y-115333000D02*
X151540500Y-115333000D01*
X151540500Y-114707000D01*
X151719500Y-114707000D01*
X151719500Y-115333000D01*
G36*
X151719500Y-115333000D02*
G01*
X151540500Y-115333000D01*
X151540500Y-114707000D01*
X151719500Y-114707000D01*
X151719500Y-115333000D01*
G37*
X151719500Y-118413001D02*
X151540500Y-118413001D01*
X151540500Y-117787000D01*
X151719500Y-117787000D01*
X151719500Y-118413001D01*
G36*
X151719500Y-118413001D02*
G01*
X151540500Y-118413001D01*
X151540500Y-117787000D01*
X151719500Y-117787000D01*
X151719500Y-118413001D01*
G37*
X152119500Y-81333000D02*
X151940500Y-81333000D01*
X151940500Y-80707000D01*
X152119500Y-80707000D01*
X152119500Y-81333000D01*
G36*
X152119500Y-81333000D02*
G01*
X151940500Y-81333000D01*
X151940500Y-80707000D01*
X152119500Y-80707000D01*
X152119500Y-81333000D01*
G37*
X152119500Y-84413000D02*
X151940500Y-84413000D01*
X151940500Y-83787000D01*
X152119500Y-83787000D01*
X152119500Y-84413000D01*
G36*
X152119500Y-84413000D02*
G01*
X151940500Y-84413000D01*
X151940500Y-83787000D01*
X152119500Y-83787000D01*
X152119500Y-84413000D01*
G37*
X152119500Y-115333000D02*
X151940500Y-115333000D01*
X151940500Y-114707000D01*
X152119500Y-114707000D01*
X152119500Y-115333000D01*
G36*
X152119500Y-115333000D02*
G01*
X151940500Y-115333000D01*
X151940500Y-114707000D01*
X152119500Y-114707000D01*
X152119500Y-115333000D01*
G37*
X152119500Y-118413000D02*
X151940500Y-118413000D01*
X151940500Y-117787000D01*
X152119500Y-117787000D01*
X152119500Y-118413000D01*
G36*
X152119500Y-118413000D02*
G01*
X151940500Y-118413000D01*
X151940500Y-117787000D01*
X152119500Y-117787000D01*
X152119500Y-118413000D01*
G37*
X152519500Y-115333000D02*
X152340500Y-115333000D01*
X152340499Y-114707000D01*
X152519500Y-114706999D01*
X152519500Y-115333000D01*
G36*
X152519500Y-115333000D02*
G01*
X152340500Y-115333000D01*
X152340499Y-114707000D01*
X152519500Y-114706999D01*
X152519500Y-115333000D01*
G37*
X152519500Y-81333000D02*
X152340500Y-81333000D01*
X152340500Y-80707000D01*
X152519500Y-80707000D01*
X152519500Y-81333000D01*
G36*
X152519500Y-81333000D02*
G01*
X152340500Y-81333000D01*
X152340500Y-80707000D01*
X152519500Y-80707000D01*
X152519500Y-81333000D01*
G37*
X152519500Y-84413001D02*
X152340499Y-84413000D01*
X152340500Y-83787000D01*
X152519500Y-83787000D01*
X152519500Y-84413001D01*
G36*
X152519500Y-84413001D02*
G01*
X152340499Y-84413000D01*
X152340500Y-83787000D01*
X152519500Y-83787000D01*
X152519500Y-84413001D01*
G37*
X152519500Y-118413000D02*
X152340500Y-118413000D01*
X152340500Y-117787000D01*
X152519500Y-117787000D01*
X152519500Y-118413000D01*
G36*
X152519500Y-118413000D02*
G01*
X152340500Y-118413000D01*
X152340500Y-117787000D01*
X152519500Y-117787000D01*
X152519500Y-118413000D01*
G37*
X152919500Y-80707000D02*
X152919500Y-81333000D01*
X152740500Y-81333000D01*
X152740500Y-80706999D01*
X152919500Y-80707000D01*
G36*
X152919500Y-80707000D02*
G01*
X152919500Y-81333000D01*
X152740500Y-81333000D01*
X152740500Y-80706999D01*
X152919500Y-80707000D01*
G37*
X152919500Y-84413000D02*
X152740500Y-84413000D01*
X152740500Y-83787000D01*
X152919500Y-83787000D01*
X152919500Y-84413000D01*
G36*
X152919500Y-84413000D02*
G01*
X152740500Y-84413000D01*
X152740500Y-83787000D01*
X152919500Y-83787000D01*
X152919500Y-84413000D01*
G37*
X152919500Y-115333000D02*
X152740500Y-115333000D01*
X152740500Y-114707000D01*
X152919500Y-114707000D01*
X152919500Y-115333000D01*
G36*
X152919500Y-115333000D02*
G01*
X152740500Y-115333000D01*
X152740500Y-114707000D01*
X152919500Y-114707000D01*
X152919500Y-115333000D01*
G37*
X152919500Y-118413000D02*
X152740500Y-118413001D01*
X152740500Y-117787000D01*
X152919500Y-117787000D01*
X152919500Y-118413000D01*
G36*
X152919500Y-118413000D02*
G01*
X152740500Y-118413001D01*
X152740500Y-117787000D01*
X152919500Y-117787000D01*
X152919500Y-118413000D01*
G37*
X153319500Y-81333000D02*
X153140500Y-81333000D01*
X153140500Y-80707000D01*
X153319500Y-80706999D01*
X153319500Y-81333000D01*
G36*
X153319500Y-81333000D02*
G01*
X153140500Y-81333000D01*
X153140500Y-80707000D01*
X153319500Y-80706999D01*
X153319500Y-81333000D01*
G37*
X153319500Y-84413000D02*
X153140500Y-84413000D01*
X153140500Y-83787000D01*
X153319500Y-83787000D01*
X153319500Y-84413000D01*
G36*
X153319500Y-84413000D02*
G01*
X153140500Y-84413000D01*
X153140500Y-83787000D01*
X153319500Y-83787000D01*
X153319500Y-84413000D01*
G37*
X153319500Y-115333000D02*
X153140500Y-115333000D01*
X153140500Y-114707000D01*
X153319500Y-114707000D01*
X153319500Y-115333000D01*
G36*
X153319500Y-115333000D02*
G01*
X153140500Y-115333000D01*
X153140500Y-114707000D01*
X153319500Y-114707000D01*
X153319500Y-115333000D01*
G37*
X153319500Y-118413001D02*
X153140500Y-118413000D01*
X153140500Y-117787000D01*
X153319500Y-117787000D01*
X153319500Y-118413001D01*
G36*
X153319500Y-118413001D02*
G01*
X153140500Y-118413000D01*
X153140500Y-117787000D01*
X153319500Y-117787000D01*
X153319500Y-118413001D01*
G37*
X153719500Y-81333000D02*
X153540500Y-81333000D01*
X153540500Y-80707000D01*
X153719500Y-80707000D01*
X153719500Y-81333000D01*
G36*
X153719500Y-81333000D02*
G01*
X153540500Y-81333000D01*
X153540500Y-80707000D01*
X153719500Y-80707000D01*
X153719500Y-81333000D01*
G37*
X153719500Y-84413000D02*
X153540500Y-84413001D01*
X153540500Y-83787000D01*
X153719500Y-83787000D01*
X153719500Y-84413000D01*
G36*
X153719500Y-84413000D02*
G01*
X153540500Y-84413001D01*
X153540500Y-83787000D01*
X153719500Y-83787000D01*
X153719500Y-84413000D01*
G37*
X153719500Y-114707000D02*
X153719500Y-115333000D01*
X153540500Y-115333000D01*
X153540500Y-114706999D01*
X153719500Y-114707000D01*
G36*
X153719500Y-114707000D02*
G01*
X153719500Y-115333000D01*
X153540500Y-115333000D01*
X153540500Y-114706999D01*
X153719500Y-114707000D01*
G37*
X153719500Y-118413000D02*
X153540500Y-118413000D01*
X153540500Y-117787000D01*
X153719500Y-117787000D01*
X153719500Y-118413000D01*
G36*
X153719500Y-118413000D02*
G01*
X153540500Y-118413000D01*
X153540500Y-117787000D01*
X153719500Y-117787000D01*
X153719500Y-118413000D01*
G37*
X154119500Y-81333000D02*
X153940500Y-81333000D01*
X153940500Y-80707000D01*
X154119500Y-80707000D01*
X154119500Y-81333000D01*
G36*
X154119500Y-81333000D02*
G01*
X153940500Y-81333000D01*
X153940500Y-80707000D01*
X154119500Y-80707000D01*
X154119500Y-81333000D01*
G37*
X154119499Y-84413000D02*
X153940500Y-84413000D01*
X153940500Y-83787000D01*
X154119500Y-83787000D01*
X154119499Y-84413000D01*
G36*
X154119499Y-84413000D02*
G01*
X153940500Y-84413000D01*
X153940500Y-83787000D01*
X154119500Y-83787000D01*
X154119499Y-84413000D01*
G37*
X154119500Y-115333000D02*
X153940500Y-115333000D01*
X153940500Y-114707000D01*
X154119499Y-114707000D01*
X154119500Y-115333000D01*
G36*
X154119500Y-115333000D02*
G01*
X153940500Y-115333000D01*
X153940500Y-114707000D01*
X154119499Y-114707000D01*
X154119500Y-115333000D01*
G37*
X154119500Y-118413000D02*
X153940500Y-118413000D01*
X153940500Y-117787000D01*
X154119500Y-117787000D01*
X154119500Y-118413000D01*
G36*
X154119500Y-118413000D02*
G01*
X153940500Y-118413000D01*
X153940500Y-117787000D01*
X154119500Y-117787000D01*
X154119500Y-118413000D01*
G37*
X154519500Y-81333000D02*
X154340500Y-81333000D01*
X154340500Y-80706999D01*
X154519500Y-80706999D01*
X154519500Y-81333000D01*
G36*
X154519500Y-81333000D02*
G01*
X154340500Y-81333000D01*
X154340500Y-80706999D01*
X154519500Y-80706999D01*
X154519500Y-81333000D01*
G37*
X154519500Y-84413000D02*
X154340500Y-84413000D01*
X154340500Y-83787000D01*
X154519500Y-83787000D01*
X154519500Y-84413000D01*
G36*
X154519500Y-84413000D02*
G01*
X154340500Y-84413000D01*
X154340500Y-83787000D01*
X154519500Y-83787000D01*
X154519500Y-84413000D01*
G37*
X154519500Y-115333000D02*
X154340500Y-115333000D01*
X154340500Y-114707000D01*
X154519500Y-114707000D01*
X154519500Y-115333000D01*
G36*
X154519500Y-115333000D02*
G01*
X154340500Y-115333000D01*
X154340500Y-114707000D01*
X154519500Y-114707000D01*
X154519500Y-115333000D01*
G37*
X154519500Y-118413001D02*
X154340500Y-118413001D01*
X154340500Y-117787000D01*
X154519500Y-117787000D01*
X154519500Y-118413001D01*
G36*
X154519500Y-118413001D02*
G01*
X154340500Y-118413001D01*
X154340500Y-117787000D01*
X154519500Y-117787000D01*
X154519500Y-118413001D01*
G37*
X154919500Y-81333000D02*
X154740500Y-81333000D01*
X154740500Y-80707000D01*
X154919500Y-80707000D01*
X154919500Y-81333000D01*
G36*
X154919500Y-81333000D02*
G01*
X154740500Y-81333000D01*
X154740500Y-80707000D01*
X154919500Y-80707000D01*
X154919500Y-81333000D01*
G37*
X154919500Y-84413000D02*
X154740500Y-84413000D01*
X154740500Y-83787000D01*
X154919500Y-83787000D01*
X154919500Y-84413000D01*
G36*
X154919500Y-84413000D02*
G01*
X154740500Y-84413000D01*
X154740500Y-83787000D01*
X154919500Y-83787000D01*
X154919500Y-84413000D01*
G37*
X154919500Y-115333000D02*
X154740500Y-115333000D01*
X154740500Y-114707000D01*
X154919500Y-114707000D01*
X154919500Y-115333000D01*
G36*
X154919500Y-115333000D02*
G01*
X154740500Y-115333000D01*
X154740500Y-114707000D01*
X154919500Y-114707000D01*
X154919500Y-115333000D01*
G37*
X154919500Y-118413000D02*
X154740500Y-118413000D01*
X154740500Y-117787000D01*
X154919500Y-117787000D01*
X154919500Y-118413000D01*
G36*
X154919500Y-118413000D02*
G01*
X154740500Y-118413000D01*
X154740500Y-117787000D01*
X154919500Y-117787000D01*
X154919500Y-118413000D01*
G37*
X155319500Y-115333000D02*
X155140500Y-115333000D01*
X155140499Y-114707000D01*
X155319500Y-114706999D01*
X155319500Y-115333000D01*
G36*
X155319500Y-115333000D02*
G01*
X155140500Y-115333000D01*
X155140499Y-114707000D01*
X155319500Y-114706999D01*
X155319500Y-115333000D01*
G37*
X155319500Y-81333000D02*
X155140500Y-81333000D01*
X155140500Y-80707000D01*
X155319500Y-80707000D01*
X155319500Y-81333000D01*
G36*
X155319500Y-81333000D02*
G01*
X155140500Y-81333000D01*
X155140500Y-80707000D01*
X155319500Y-80707000D01*
X155319500Y-81333000D01*
G37*
X155319500Y-84413001D02*
X155140499Y-84413000D01*
X155140500Y-83787000D01*
X155319500Y-83787000D01*
X155319500Y-84413001D01*
G36*
X155319500Y-84413001D02*
G01*
X155140499Y-84413000D01*
X155140500Y-83787000D01*
X155319500Y-83787000D01*
X155319500Y-84413001D01*
G37*
X155319500Y-118413000D02*
X155140500Y-118413000D01*
X155140500Y-117787000D01*
X155319500Y-117787000D01*
X155319500Y-118413000D01*
G36*
X155319500Y-118413000D02*
G01*
X155140500Y-118413000D01*
X155140500Y-117787000D01*
X155319500Y-117787000D01*
X155319500Y-118413000D01*
G37*
X155719500Y-80707000D02*
X155719500Y-81333000D01*
X155540500Y-81333000D01*
X155540500Y-80706999D01*
X155719500Y-80707000D01*
G36*
X155719500Y-80707000D02*
G01*
X155719500Y-81333000D01*
X155540500Y-81333000D01*
X155540500Y-80706999D01*
X155719500Y-80707000D01*
G37*
X155719500Y-84413000D02*
X155540500Y-84413000D01*
X155540500Y-83787000D01*
X155719500Y-83787000D01*
X155719500Y-84413000D01*
G36*
X155719500Y-84413000D02*
G01*
X155540500Y-84413000D01*
X155540500Y-83787000D01*
X155719500Y-83787000D01*
X155719500Y-84413000D01*
G37*
X155719500Y-115333000D02*
X155540500Y-115333000D01*
X155540500Y-114707000D01*
X155719500Y-114707000D01*
X155719500Y-115333000D01*
G36*
X155719500Y-115333000D02*
G01*
X155540500Y-115333000D01*
X155540500Y-114707000D01*
X155719500Y-114707000D01*
X155719500Y-115333000D01*
G37*
X155719500Y-118413000D02*
X155540500Y-118413001D01*
X155540500Y-117787000D01*
X155719500Y-117787000D01*
X155719500Y-118413000D01*
G36*
X155719500Y-118413000D02*
G01*
X155540500Y-118413001D01*
X155540500Y-117787000D01*
X155719500Y-117787000D01*
X155719500Y-118413000D01*
G37*
X156119500Y-81333000D02*
X155940500Y-81333000D01*
X155940500Y-80707000D01*
X156119500Y-80706999D01*
X156119500Y-81333000D01*
G36*
X156119500Y-81333000D02*
G01*
X155940500Y-81333000D01*
X155940500Y-80707000D01*
X156119500Y-80706999D01*
X156119500Y-81333000D01*
G37*
X156119500Y-84413000D02*
X155940500Y-84413000D01*
X155940500Y-83787000D01*
X156119500Y-83787000D01*
X156119500Y-84413000D01*
G36*
X156119500Y-84413000D02*
G01*
X155940500Y-84413000D01*
X155940500Y-83787000D01*
X156119500Y-83787000D01*
X156119500Y-84413000D01*
G37*
X156119500Y-115333000D02*
X155940500Y-115333000D01*
X155940500Y-114707000D01*
X156119500Y-114707000D01*
X156119500Y-115333000D01*
G36*
X156119500Y-115333000D02*
G01*
X155940500Y-115333000D01*
X155940500Y-114707000D01*
X156119500Y-114707000D01*
X156119500Y-115333000D01*
G37*
X156119500Y-118413001D02*
X155940500Y-118413000D01*
X155940500Y-117787000D01*
X156119500Y-117787000D01*
X156119500Y-118413001D01*
G36*
X156119500Y-118413001D02*
G01*
X155940500Y-118413000D01*
X155940500Y-117787000D01*
X156119500Y-117787000D01*
X156119500Y-118413001D01*
G37*
X156519500Y-81333000D02*
X156340500Y-81333000D01*
X156340500Y-80707000D01*
X156519500Y-80707000D01*
X156519500Y-81333000D01*
G36*
X156519500Y-81333000D02*
G01*
X156340500Y-81333000D01*
X156340500Y-80707000D01*
X156519500Y-80707000D01*
X156519500Y-81333000D01*
G37*
X156519500Y-84413000D02*
X156340500Y-84413001D01*
X156340500Y-83787000D01*
X156519500Y-83787000D01*
X156519500Y-84413000D01*
G36*
X156519500Y-84413000D02*
G01*
X156340500Y-84413001D01*
X156340500Y-83787000D01*
X156519500Y-83787000D01*
X156519500Y-84413000D01*
G37*
X156519500Y-114707000D02*
X156519500Y-115333000D01*
X156340500Y-115333000D01*
X156340500Y-114706999D01*
X156519500Y-114707000D01*
G36*
X156519500Y-114707000D02*
G01*
X156519500Y-115333000D01*
X156340500Y-115333000D01*
X156340500Y-114706999D01*
X156519500Y-114707000D01*
G37*
X156519500Y-118413000D02*
X156340500Y-118413000D01*
X156340500Y-117787000D01*
X156519500Y-117787000D01*
X156519500Y-118413000D01*
G36*
X156519500Y-118413000D02*
G01*
X156340500Y-118413000D01*
X156340500Y-117787000D01*
X156519500Y-117787000D01*
X156519500Y-118413000D01*
G37*
X156919500Y-81333000D02*
X156740500Y-81333000D01*
X156740500Y-80707000D01*
X156919500Y-80707000D01*
X156919500Y-81333000D01*
G36*
X156919500Y-81333000D02*
G01*
X156740500Y-81333000D01*
X156740500Y-80707000D01*
X156919500Y-80707000D01*
X156919500Y-81333000D01*
G37*
X156919499Y-84413000D02*
X156740500Y-84413000D01*
X156740500Y-83787000D01*
X156919500Y-83787000D01*
X156919499Y-84413000D01*
G36*
X156919499Y-84413000D02*
G01*
X156740500Y-84413000D01*
X156740500Y-83787000D01*
X156919500Y-83787000D01*
X156919499Y-84413000D01*
G37*
X156919500Y-115333000D02*
X156740500Y-115333000D01*
X156740500Y-114707000D01*
X156919499Y-114707000D01*
X156919500Y-115333000D01*
G36*
X156919500Y-115333000D02*
G01*
X156740500Y-115333000D01*
X156740500Y-114707000D01*
X156919499Y-114707000D01*
X156919500Y-115333000D01*
G37*
X156919500Y-118413000D02*
X156740500Y-118413000D01*
X156740500Y-117787000D01*
X156919500Y-117787000D01*
X156919500Y-118413000D01*
G36*
X156919500Y-118413000D02*
G01*
X156740500Y-118413000D01*
X156740500Y-117787000D01*
X156919500Y-117787000D01*
X156919500Y-118413000D01*
G37*
X157319500Y-81333000D02*
X157140500Y-81333000D01*
X157140500Y-80706999D01*
X157319500Y-80706999D01*
X157319500Y-81333000D01*
G36*
X157319500Y-81333000D02*
G01*
X157140500Y-81333000D01*
X157140500Y-80706999D01*
X157319500Y-80706999D01*
X157319500Y-81333000D01*
G37*
X157319500Y-84413000D02*
X157140500Y-84413000D01*
X157140500Y-83787000D01*
X157319500Y-83787000D01*
X157319500Y-84413000D01*
G36*
X157319500Y-84413000D02*
G01*
X157140500Y-84413000D01*
X157140500Y-83787000D01*
X157319500Y-83787000D01*
X157319500Y-84413000D01*
G37*
X157319500Y-115333000D02*
X157140500Y-115333000D01*
X157140500Y-114707000D01*
X157319500Y-114707000D01*
X157319500Y-115333000D01*
G36*
X157319500Y-115333000D02*
G01*
X157140500Y-115333000D01*
X157140500Y-114707000D01*
X157319500Y-114707000D01*
X157319500Y-115333000D01*
G37*
X157319500Y-118413001D02*
X157140500Y-118413001D01*
X157140500Y-117787000D01*
X157319500Y-117787000D01*
X157319500Y-118413001D01*
G36*
X157319500Y-118413001D02*
G01*
X157140500Y-118413001D01*
X157140500Y-117787000D01*
X157319500Y-117787000D01*
X157319500Y-118413001D01*
G37*
X157719500Y-81333000D02*
X157540500Y-81333000D01*
X157540500Y-80707000D01*
X157719500Y-80707000D01*
X157719500Y-81333000D01*
G36*
X157719500Y-81333000D02*
G01*
X157540500Y-81333000D01*
X157540500Y-80707000D01*
X157719500Y-80707000D01*
X157719500Y-81333000D01*
G37*
X157719500Y-84413000D02*
X157540500Y-84413000D01*
X157540500Y-83787000D01*
X157719500Y-83787000D01*
X157719500Y-84413000D01*
G36*
X157719500Y-84413000D02*
G01*
X157540500Y-84413000D01*
X157540500Y-83787000D01*
X157719500Y-83787000D01*
X157719500Y-84413000D01*
G37*
X157719500Y-115333000D02*
X157540500Y-115333000D01*
X157540500Y-114707000D01*
X157719500Y-114707000D01*
X157719500Y-115333000D01*
G36*
X157719500Y-115333000D02*
G01*
X157540500Y-115333000D01*
X157540500Y-114707000D01*
X157719500Y-114707000D01*
X157719500Y-115333000D01*
G37*
X157719500Y-118413000D02*
X157540500Y-118413000D01*
X157540500Y-117787000D01*
X157719500Y-117787000D01*
X157719500Y-118413000D01*
G36*
X157719500Y-118413000D02*
G01*
X157540500Y-118413000D01*
X157540500Y-117787000D01*
X157719500Y-117787000D01*
X157719500Y-118413000D01*
G37*
X158119500Y-115333000D02*
X157940500Y-115333000D01*
X157940499Y-114707000D01*
X158119500Y-114706999D01*
X158119500Y-115333000D01*
G36*
X158119500Y-115333000D02*
G01*
X157940500Y-115333000D01*
X157940499Y-114707000D01*
X158119500Y-114706999D01*
X158119500Y-115333000D01*
G37*
X158119500Y-81333000D02*
X157940500Y-81333000D01*
X157940500Y-80707000D01*
X158119500Y-80707000D01*
X158119500Y-81333000D01*
G36*
X158119500Y-81333000D02*
G01*
X157940500Y-81333000D01*
X157940500Y-80707000D01*
X158119500Y-80707000D01*
X158119500Y-81333000D01*
G37*
X158119500Y-84413001D02*
X157940499Y-84413000D01*
X157940500Y-83787000D01*
X158119500Y-83787000D01*
X158119500Y-84413001D01*
G36*
X158119500Y-84413001D02*
G01*
X157940499Y-84413000D01*
X157940500Y-83787000D01*
X158119500Y-83787000D01*
X158119500Y-84413001D01*
G37*
X158119500Y-118413000D02*
X157940500Y-118413000D01*
X157940500Y-117787000D01*
X158119500Y-117787000D01*
X158119500Y-118413000D01*
G36*
X158119500Y-118413000D02*
G01*
X157940500Y-118413000D01*
X157940500Y-117787000D01*
X158119500Y-117787000D01*
X158119500Y-118413000D01*
G37*
X158519500Y-80707000D02*
X158519500Y-81333000D01*
X158340500Y-81333000D01*
X158340500Y-80706999D01*
X158519500Y-80707000D01*
G36*
X158519500Y-80707000D02*
G01*
X158519500Y-81333000D01*
X158340500Y-81333000D01*
X158340500Y-80706999D01*
X158519500Y-80707000D01*
G37*
X158519500Y-84413000D02*
X158340500Y-84413000D01*
X158340500Y-83787000D01*
X158519500Y-83787000D01*
X158519500Y-84413000D01*
G36*
X158519500Y-84413000D02*
G01*
X158340500Y-84413000D01*
X158340500Y-83787000D01*
X158519500Y-83787000D01*
X158519500Y-84413000D01*
G37*
X158519500Y-115333000D02*
X158340500Y-115333000D01*
X158340500Y-114707000D01*
X158519500Y-114707000D01*
X158519500Y-115333000D01*
G36*
X158519500Y-115333000D02*
G01*
X158340500Y-115333000D01*
X158340500Y-114707000D01*
X158519500Y-114707000D01*
X158519500Y-115333000D01*
G37*
X158519500Y-118413000D02*
X158340500Y-118413001D01*
X158340500Y-117787000D01*
X158519500Y-117787000D01*
X158519500Y-118413000D01*
G36*
X158519500Y-118413000D02*
G01*
X158340500Y-118413001D01*
X158340500Y-117787000D01*
X158519500Y-117787000D01*
X158519500Y-118413000D01*
G37*
X158919500Y-81333000D02*
X158740500Y-81333000D01*
X158740500Y-80707000D01*
X158919500Y-80706999D01*
X158919500Y-81333000D01*
G36*
X158919500Y-81333000D02*
G01*
X158740500Y-81333000D01*
X158740500Y-80707000D01*
X158919500Y-80706999D01*
X158919500Y-81333000D01*
G37*
X158919500Y-84413000D02*
X158740500Y-84413000D01*
X158740500Y-83787000D01*
X158919500Y-83787000D01*
X158919500Y-84413000D01*
G36*
X158919500Y-84413000D02*
G01*
X158740500Y-84413000D01*
X158740500Y-83787000D01*
X158919500Y-83787000D01*
X158919500Y-84413000D01*
G37*
X158919500Y-115333000D02*
X158740500Y-115333000D01*
X158740500Y-114707000D01*
X158919500Y-114707000D01*
X158919500Y-115333000D01*
G36*
X158919500Y-115333000D02*
G01*
X158740500Y-115333000D01*
X158740500Y-114707000D01*
X158919500Y-114707000D01*
X158919500Y-115333000D01*
G37*
X158919500Y-118413001D02*
X158740500Y-118413000D01*
X158740500Y-117787000D01*
X158919500Y-117787000D01*
X158919500Y-118413001D01*
G36*
X158919500Y-118413001D02*
G01*
X158740500Y-118413000D01*
X158740500Y-117787000D01*
X158919500Y-117787000D01*
X158919500Y-118413001D01*
G37*
X159319500Y-81333000D02*
X159140500Y-81333000D01*
X159140500Y-80707000D01*
X159319500Y-80707000D01*
X159319500Y-81333000D01*
G36*
X159319500Y-81333000D02*
G01*
X159140500Y-81333000D01*
X159140500Y-80707000D01*
X159319500Y-80707000D01*
X159319500Y-81333000D01*
G37*
X159319501Y-84413000D02*
X159140500Y-84413001D01*
X159140500Y-83787000D01*
X159319500Y-83787000D01*
X159319501Y-84413000D01*
G36*
X159319501Y-84413000D02*
G01*
X159140500Y-84413001D01*
X159140500Y-83787000D01*
X159319500Y-83787000D01*
X159319501Y-84413000D01*
G37*
X159319501Y-114707000D02*
X159319500Y-115333000D01*
X159140500Y-115333000D01*
X159140500Y-114706999D01*
X159319501Y-114707000D01*
G36*
X159319501Y-114707000D02*
G01*
X159319500Y-115333000D01*
X159140500Y-115333000D01*
X159140500Y-114706999D01*
X159319501Y-114707000D01*
G37*
X159319500Y-118413000D02*
X159140500Y-118413000D01*
X159140500Y-117787000D01*
X159319500Y-117787000D01*
X159319500Y-118413000D01*
G36*
X159319500Y-118413000D02*
G01*
X159140500Y-118413000D01*
X159140500Y-117787000D01*
X159319500Y-117787000D01*
X159319500Y-118413000D01*
G37*
X159719500Y-81333000D02*
X159540500Y-81333000D01*
X159540500Y-80707000D01*
X159719500Y-80707000D01*
X159719500Y-81333000D01*
G36*
X159719500Y-81333000D02*
G01*
X159540500Y-81333000D01*
X159540500Y-80707000D01*
X159719500Y-80707000D01*
X159719500Y-81333000D01*
G37*
X159719500Y-84413000D02*
X159540500Y-84413000D01*
X159540500Y-83787000D01*
X159719500Y-83787000D01*
X159719500Y-84413000D01*
G36*
X159719500Y-84413000D02*
G01*
X159540500Y-84413000D01*
X159540500Y-83787000D01*
X159719500Y-83787000D01*
X159719500Y-84413000D01*
G37*
X159719500Y-115333000D02*
X159540500Y-115333000D01*
X159540500Y-114707000D01*
X159719500Y-114707000D01*
X159719500Y-115333000D01*
G36*
X159719500Y-115333000D02*
G01*
X159540500Y-115333000D01*
X159540500Y-114707000D01*
X159719500Y-114707000D01*
X159719500Y-115333000D01*
G37*
X159719500Y-118413000D02*
X159540500Y-118413000D01*
X159540500Y-117787000D01*
X159719500Y-117787000D01*
X159719500Y-118413000D01*
G36*
X159719500Y-118413000D02*
G01*
X159540500Y-118413000D01*
X159540500Y-117787000D01*
X159719500Y-117787000D01*
X159719500Y-118413000D01*
G37*
X160119500Y-81333000D02*
X159940500Y-81333000D01*
X159940500Y-80706999D01*
X160119500Y-80706999D01*
X160119500Y-81333000D01*
G36*
X160119500Y-81333000D02*
G01*
X159940500Y-81333000D01*
X159940500Y-80706999D01*
X160119500Y-80706999D01*
X160119500Y-81333000D01*
G37*
X160119500Y-84413000D02*
X159940500Y-84413000D01*
X159940500Y-83787000D01*
X160119500Y-83787000D01*
X160119500Y-84413000D01*
G36*
X160119500Y-84413000D02*
G01*
X159940500Y-84413000D01*
X159940500Y-83787000D01*
X160119500Y-83787000D01*
X160119500Y-84413000D01*
G37*
X160119500Y-115333000D02*
X159940500Y-115333000D01*
X159940500Y-114707000D01*
X160119500Y-114707000D01*
X160119500Y-115333000D01*
G36*
X160119500Y-115333000D02*
G01*
X159940500Y-115333000D01*
X159940500Y-114707000D01*
X160119500Y-114707000D01*
X160119500Y-115333000D01*
G37*
X160119500Y-118413001D02*
X159940500Y-118413001D01*
X159940500Y-117787000D01*
X160119500Y-117787000D01*
X160119500Y-118413001D01*
G36*
X160119500Y-118413001D02*
G01*
X159940500Y-118413001D01*
X159940500Y-117787000D01*
X160119500Y-117787000D01*
X160119500Y-118413001D01*
G37*
X176103000Y-97449500D02*
X175477000Y-97449500D01*
X175477000Y-97270500D01*
X176103000Y-97270500D01*
X176103000Y-97449500D01*
G36*
X176103000Y-97449500D02*
G01*
X175477000Y-97449500D01*
X175477000Y-97270500D01*
X176103000Y-97270500D01*
X176103000Y-97449500D01*
G37*
X176103000Y-97849500D02*
X175477000Y-97849500D01*
X175477000Y-97670500D01*
X176103000Y-97670500D01*
X176103000Y-97849500D01*
G36*
X176103000Y-97849500D02*
G01*
X175477000Y-97849500D01*
X175477000Y-97670500D01*
X176103000Y-97670500D01*
X176103000Y-97849500D01*
G37*
X176103000Y-98070500D02*
X176103000Y-98249500D01*
X175477000Y-98249501D01*
X175477000Y-98070499D01*
X176103000Y-98070500D01*
G36*
X176103000Y-98070500D02*
G01*
X176103000Y-98249500D01*
X175477000Y-98249501D01*
X175477000Y-98070499D01*
X176103000Y-98070500D01*
G37*
X176103000Y-98649500D02*
X175477000Y-98649500D01*
X175477000Y-98470500D01*
X176103000Y-98470500D01*
X176103000Y-98649500D01*
G36*
X176103000Y-98649500D02*
G01*
X175477000Y-98649500D01*
X175477000Y-98470500D01*
X176103000Y-98470500D01*
X176103000Y-98649500D01*
G37*
X176103000Y-99049500D02*
X175477000Y-99049500D01*
X175477000Y-98870500D01*
X176103000Y-98870500D01*
X176103000Y-99049500D01*
G36*
X176103000Y-99049500D02*
G01*
X175477000Y-99049500D01*
X175477000Y-98870500D01*
X176103000Y-98870500D01*
X176103000Y-99049500D01*
G37*
X176103000Y-99449500D02*
X175477000Y-99449500D01*
X175477000Y-99270501D01*
X176103000Y-99270500D01*
X176103000Y-99449500D01*
G36*
X176103000Y-99449500D02*
G01*
X175477000Y-99449500D01*
X175477000Y-99270501D01*
X176103000Y-99270500D01*
X176103000Y-99449500D01*
G37*
X176103000Y-99849500D02*
X175477000Y-99849499D01*
X175477000Y-99670500D01*
X176103000Y-99670500D01*
X176103000Y-99849500D01*
G36*
X176103000Y-99849500D02*
G01*
X175477000Y-99849499D01*
X175477000Y-99670500D01*
X176103000Y-99670500D01*
X176103000Y-99849500D01*
G37*
X176103000Y-100249500D02*
X175477000Y-100249500D01*
X175477000Y-100070500D01*
X176103000Y-100070500D01*
X176103000Y-100249500D01*
G36*
X176103000Y-100249500D02*
G01*
X175477000Y-100249500D01*
X175477000Y-100070500D01*
X176103000Y-100070500D01*
X176103000Y-100249500D01*
G37*
X176103000Y-100649500D02*
X175477000Y-100649500D01*
X175477000Y-100470500D01*
X176103000Y-100470500D01*
X176103000Y-100649500D01*
G36*
X176103000Y-100649500D02*
G01*
X175477000Y-100649500D01*
X175477000Y-100470500D01*
X176103000Y-100470500D01*
X176103000Y-100649500D01*
G37*
X176103000Y-100870500D02*
X176103000Y-101049500D01*
X175477000Y-101049501D01*
X175477000Y-100870499D01*
X176103000Y-100870500D01*
G36*
X176103000Y-100870500D02*
G01*
X176103000Y-101049500D01*
X175477000Y-101049501D01*
X175477000Y-100870499D01*
X176103000Y-100870500D01*
G37*
X176103000Y-101449500D02*
X175477000Y-101449500D01*
X175477000Y-101270500D01*
X176103000Y-101270500D01*
X176103000Y-101449500D01*
G36*
X176103000Y-101449500D02*
G01*
X175477000Y-101449500D01*
X175477000Y-101270500D01*
X176103000Y-101270500D01*
X176103000Y-101449500D01*
G37*
X176103000Y-101849500D02*
X175477000Y-101849500D01*
X175477000Y-101670500D01*
X176103000Y-101670500D01*
X176103000Y-101849500D01*
G36*
X176103000Y-101849500D02*
G01*
X175477000Y-101849500D01*
X175477000Y-101670500D01*
X176103000Y-101670500D01*
X176103000Y-101849500D01*
G37*
X179183000Y-97449500D02*
X178557000Y-97449500D01*
X178557000Y-97270500D01*
X179183000Y-97270500D01*
X179183000Y-97449500D01*
G36*
X179183000Y-97449500D02*
G01*
X178557000Y-97449500D01*
X178557000Y-97270500D01*
X179183000Y-97270500D01*
X179183000Y-97449500D01*
G37*
X179183000Y-97849500D02*
X178557000Y-97849500D01*
X178557000Y-97670500D01*
X179183000Y-97670500D01*
X179183000Y-97849500D01*
G36*
X179183000Y-97849500D02*
G01*
X178557000Y-97849500D01*
X178557000Y-97670500D01*
X179183000Y-97670500D01*
X179183000Y-97849500D01*
G37*
X179183000Y-98249500D02*
X178557000Y-98249500D01*
X178557000Y-98070500D01*
X179183000Y-98070500D01*
X179183000Y-98249500D01*
G36*
X179183000Y-98249500D02*
G01*
X178557000Y-98249500D01*
X178557000Y-98070500D01*
X179183000Y-98070500D01*
X179183000Y-98249500D01*
G37*
X179183000Y-98649500D02*
X178557000Y-98649500D01*
X178557000Y-98470500D01*
X179183000Y-98470500D01*
X179183000Y-98649500D01*
G36*
X179183000Y-98649500D02*
G01*
X178557000Y-98649500D01*
X178557000Y-98470500D01*
X179183000Y-98470500D01*
X179183000Y-98649500D01*
G37*
X179183000Y-99049500D02*
X178557000Y-99049500D01*
X178557000Y-98870500D01*
X179183000Y-98870500D01*
X179183000Y-99049500D01*
G36*
X179183000Y-99049500D02*
G01*
X178557000Y-99049500D01*
X178557000Y-98870500D01*
X179183000Y-98870500D01*
X179183000Y-99049500D01*
G37*
X179183000Y-99449500D02*
X178557000Y-99449500D01*
X178557000Y-99270500D01*
X179183000Y-99270500D01*
X179183000Y-99449500D01*
G36*
X179183000Y-99449500D02*
G01*
X178557000Y-99449500D01*
X178557000Y-99270500D01*
X179183000Y-99270500D01*
X179183000Y-99449500D01*
G37*
X179183000Y-99849500D02*
X178557000Y-99849500D01*
X178557000Y-99670500D01*
X179183000Y-99670500D01*
X179183000Y-99849500D01*
G36*
X179183000Y-99849500D02*
G01*
X178557000Y-99849500D01*
X178557000Y-99670500D01*
X179183000Y-99670500D01*
X179183000Y-99849500D01*
G37*
X179183000Y-100249500D02*
X178557000Y-100249500D01*
X178557000Y-100070500D01*
X179183000Y-100070500D01*
X179183000Y-100249500D01*
G36*
X179183000Y-100249500D02*
G01*
X178557000Y-100249500D01*
X178557000Y-100070500D01*
X179183000Y-100070500D01*
X179183000Y-100249500D01*
G37*
X179183000Y-100649500D02*
X178557000Y-100649500D01*
X178557000Y-100470500D01*
X179183000Y-100470500D01*
X179183000Y-100649500D01*
G36*
X179183000Y-100649500D02*
G01*
X178557000Y-100649500D01*
X178557000Y-100470500D01*
X179183000Y-100470500D01*
X179183000Y-100649500D01*
G37*
X179183000Y-101049500D02*
X178557000Y-101049500D01*
X178557000Y-100870500D01*
X179183000Y-100870500D01*
X179183000Y-101049500D01*
G36*
X179183000Y-101049500D02*
G01*
X178557000Y-101049500D01*
X178557000Y-100870500D01*
X179183000Y-100870500D01*
X179183000Y-101049500D01*
G37*
X179183000Y-101449500D02*
X178557000Y-101449500D01*
X178557000Y-101270500D01*
X179183000Y-101270500D01*
X179183000Y-101449500D01*
G36*
X179183000Y-101449500D02*
G01*
X178557000Y-101449500D01*
X178557000Y-101270500D01*
X179183000Y-101270500D01*
X179183000Y-101449500D01*
G37*
X179183000Y-101849500D02*
X178557000Y-101849500D01*
X178557000Y-101670500D01*
X179183000Y-101670500D01*
X179183000Y-101849500D01*
G36*
X179183000Y-101849500D02*
G01*
X178557000Y-101849500D01*
X178557000Y-101670500D01*
X179183000Y-101670500D01*
X179183000Y-101849500D01*
G37*
%TD*%
D11*
%TO.C,C105*%
X121757500Y-52370000D03*
X123482500Y-52370000D03*
%TD*%
D12*
%TO.C,R114*%
X204937500Y-56580000D03*
X206762500Y-56580000D03*
%TD*%
D13*
%TO.C,U101*%
X218170000Y-86550000D03*
X218170000Y-88770000D03*
X220450000Y-86550000D03*
X220450000Y-88770000D03*
D14*
X215160000Y-85755000D03*
X215160000Y-87025000D03*
X215160000Y-88295000D03*
X215160000Y-89565000D03*
X223460000Y-89565000D03*
X223460000Y-88295000D03*
X223460000Y-87025000D03*
X223460000Y-85755000D03*
%TD*%
D12*
%TO.C,R103*%
X216457500Y-105200000D03*
X218282500Y-105200000D03*
%TD*%
%TO.C,R116*%
X204805000Y-68400000D03*
X206630000Y-68400000D03*
%TD*%
%TO.C,R115*%
X204850000Y-63110000D03*
X206675000Y-63110000D03*
%TD*%
D15*
%TO.C,J107*%
X208820002Y-115250000D03*
X207720002Y-115250000D03*
X206620002Y-115250000D03*
X205520002Y-115250000D03*
X204420001Y-115250000D03*
X203320002Y-115250000D03*
X202220001Y-115250000D03*
X201120002Y-115250000D03*
D16*
X212495002Y-117850000D03*
X212495002Y-109550000D03*
X198745002Y-117850000D03*
X198745002Y-109550000D03*
%TD*%
D12*
%TO.C,R101*%
X213665000Y-82035000D03*
X215490000Y-82035000D03*
%TD*%
%TO.C,R102*%
X221705000Y-81975000D03*
X223530000Y-81975000D03*
%TD*%
D17*
%TO.C,J101*%
X223220000Y-118670000D03*
X222420001Y-118670000D03*
D18*
X221220000Y-118669999D03*
X220220000Y-118670000D03*
X219720000Y-118670000D03*
X218720000Y-118669999D03*
D17*
X217519999Y-118670000D03*
X216720000Y-118670000D03*
X216720000Y-118670000D03*
X217519999Y-118670000D03*
D18*
X218220000Y-118670000D03*
X219220000Y-118670000D03*
X220720000Y-118670000D03*
X221720000Y-118670000D03*
D17*
X222420001Y-118670000D03*
X223220000Y-118670000D03*
%TD*%
D12*
%TO.C,R104*%
X221805000Y-105520000D03*
X223630000Y-105520000D03*
%TD*%
D19*
%TO.C,U102*%
X207042500Y-97600000D03*
X207042500Y-98550000D03*
X207042500Y-99500000D03*
X209317500Y-99500000D03*
X209317500Y-98550000D03*
X209317500Y-97600000D03*
%TD*%
D12*
%TO.C,R107*%
X204847500Y-50195000D03*
X206672500Y-50195000D03*
%TD*%
M02*
