%TF.GenerationSoftware,KiCad,Pcbnew,9.0.7*%
%TF.CreationDate,2026-09-08T18:45:36+05:30*%
%TF.ProjectId,eiko,65696b6f-2e6b-4696-9361-645f70636258,rev?*%
%TF.SameCoordinates,Original*%
%TF.FileFunction,Soldermask,Bot*%
%TF.FilePolarity,Negative*%
%FSLAX46Y46*%
G04 Gerber Fmt 4.6, Leading zero omitted, Abs format (unit mm)*
G04 Created by KiCad (PCBNEW 9.0.7) date 2026-09-08 18:45:36*
%MOMM*%
%LPD*%
G01*
G04 APERTURE LIST*
G04 Aperture macros list*
%AMRoundRect*
0 Rectangle with rounded corners*
0 $1 Rounding radius*
0 $2 $3 $4 $5 $6 $7 $8 $9 X,Y pos of 4 corners*
0 Add a 4 corners polygon primitive as box body*
4,1,4,$2,$3,$4,$5,$6,$7,$8,$9,$2,$3,0*
0 Add four circle primitives for the rounded corners*
1,1,$1+$1,$2,$3*
1,1,$1+$1,$4,$5*
1,1,$1+$1,$6,$7*
1,1,$1+$1,$8,$9*
0 Add four rect primitives between the rounded corners*
20,1,$1+$1,$2,$3,$4,$5,0*
20,1,$1+$1,$4,$5,$6,$7,0*
20,1,$1+$1,$6,$7,$8,$9,0*
20,1,$1+$1,$8,$9,$2,$3,0*%
G04 Aperture macros list end*
%ADD10RoundRect,0.250000X-0.350000X-0.625000X0.350000X-0.625000X0.350000X0.625000X-0.350000X0.625000X0*%
%ADD11O,1.200000X1.750000*%
%ADD12C,2.700000*%
%ADD13R,2.000000X2.000000*%
%ADD14C,2.000000*%
%ADD15R,3.200000X2.000000*%
%ADD16R,1.700000X1.700000*%
%ADD17C,1.700000*%
%ADD18C,0.650000*%
%ADD19O,1.000000X2.100000*%
%ADD20O,1.000000X1.600000*%
%ADD21R,1.300000X0.300000*%
%ADD22R,2.200000X1.800000*%
G04 APERTURE END LIST*
D10*
%TO.C,J102*%
X219820000Y-97310000D03*
D11*
X221820000Y-97310000D03*
%TD*%
D12*
%TO.C,REF\u002A\u002A*%
X192780000Y-115610000D03*
%TD*%
D13*
%TO.C,SW102*%
X211130000Y-65900000D03*
D14*
X211130000Y-70900000D03*
X211130000Y-68400000D03*
D15*
X218630000Y-62800000D03*
X218630000Y-74000000D03*
D14*
X225630000Y-70900000D03*
X225630000Y-65900000D03*
%TD*%
D12*
%TO.C,REF\u002A\u002A*%
X136850000Y-54700000D03*
%TD*%
D16*
%TO.C,J108*%
X122740000Y-57980000D03*
D17*
X122740000Y-60520000D03*
X122740000Y-63060000D03*
X122740000Y-65600000D03*
X122740000Y-68140000D03*
X122740000Y-70680000D03*
X122740000Y-73220000D03*
X122740000Y-75760000D03*
X122740000Y-78300000D03*
%TD*%
D18*
%TO.C,J101*%
X222860000Y-117225000D03*
X217080000Y-117225000D03*
D19*
X224290000Y-117755000D03*
D20*
X224290000Y-113575000D03*
D19*
X215650000Y-117755000D03*
D20*
X215650000Y-113575000D03*
%TD*%
D12*
%TO.C,U107*%
X128730000Y-83060000D03*
X128730000Y-116060000D03*
X176730000Y-83060000D03*
X176730000Y-116060000D03*
%TD*%
D13*
%TO.C,SW101*%
X211000000Y-51630000D03*
D14*
X211000000Y-56630000D03*
X211000000Y-54130000D03*
D15*
X218500000Y-48530000D03*
X218500000Y-59730000D03*
D14*
X225500000Y-56630000D03*
X225500000Y-51630000D03*
%TD*%
D16*
%TO.C,J104-ledrgbring*%
X121070000Y-109399999D03*
D17*
X121070000Y-106859999D03*
X121070000Y-104320000D03*
X121070000Y-101779999D03*
%TD*%
D21*
%TO.C,J103*%
X162405000Y-85150000D03*
X162405000Y-85650000D03*
X162405000Y-86150000D03*
X162405000Y-86650000D03*
X162404999Y-87150000D03*
X162405000Y-87650000D03*
X162405000Y-88150000D03*
X162405000Y-88650001D03*
X162405000Y-89150000D03*
X162405000Y-89649999D03*
X162405000Y-90150000D03*
X162405000Y-90650000D03*
X162405000Y-91150001D03*
X162405000Y-91650000D03*
X162405000Y-92149999D03*
X162405000Y-92650000D03*
X162405000Y-93150000D03*
X162404999Y-93650000D03*
X162405000Y-94150000D03*
X162405000Y-94650000D03*
X162405000Y-95150000D03*
X162405000Y-95650000D03*
D22*
X165655000Y-83250000D03*
X165655000Y-97550000D03*
%TD*%
M02*
