%TF.GenerationSoftware,KiCad,Pcbnew,9.0.7*%
%TF.CreationDate,2026-09-08T18:45:36+05:30*%
%TF.ProjectId,eiko,65696b6f-2e6b-4696-9361-645f70636258,rev?*%
%TF.SameCoordinates,Original*%
%TF.FileFunction,Soldermask,Top*%
%TF.FilePolarity,Negative*%
%FSLAX46Y46*%
G04 Gerber Fmt 4.6, Leading zero omitted, Abs format (unit mm)*
G04 Created by KiCad (PCBNEW 9.0.7) date 2026-09-08 18:45:36*
%MOMM*%
%LPD*%
G01*
G04 APERTURE LIST*
G04 Aperture macros list*
%AMRoundRect*
0 Rectangle with rounded corners*
0 $1 Rounding radius*
0 $2 $3 $4 $5 $6 $7 $8 $9 X,Y pos of 4 corners*
0 Add a 4 corners polygon primitive as box body*
4,1,4,$2,$3,$4,$5,$6,$7,$8,$9,$2,$3,0*
0 Add four circle primitives for the rounded corners*
1,1,$1+$1,$2,$3*
1,1,$1+$1,$4,$5*
1,1,$1+$1,$6,$7*
1,1,$1+$1,$8,$9*
0 Add four rect primitives between the rounded corners*
20,1,$1+$1,$2,$3,$4,$5,0*
20,1,$1+$1,$4,$5,$6,$7,0*
20,1,$1+$1,$6,$7,$8,$9,0*
20,1,$1+$1,$8,$9,$2,$3,0*%
G04 Aperture macros list end*
%ADD10RoundRect,0.250000X-0.350000X-0.625000X0.350000X-0.625000X0.350000X0.625000X-0.350000X0.625000X0*%
%ADD11O,1.200000X1.750000*%
%ADD12RoundRect,0.237500X-0.300000X-0.237500X0.300000X-0.237500X0.300000X0.237500X-0.300000X0.237500X0*%
%ADD13RoundRect,0.237500X-0.250000X-0.237500X0.250000X-0.237500X0.250000X0.237500X-0.250000X0.237500X0*%
%ADD14C,2.700000*%
%ADD15RoundRect,0.175000X-1.250000X-0.175000X1.250000X-0.175000X1.250000X0.175000X-1.250000X0.175000X0*%
%ADD16R,4.570000X4.450000*%
%ADD17R,2.000000X2.000000*%
%ADD18C,2.000000*%
%ADD19R,3.200000X2.000000*%
%ADD20R,0.800000X1.500000*%
%ADD21R,1.450000X2.000000*%
%ADD22R,1.700000X1.700000*%
%ADD23C,1.700000*%
%ADD24C,0.650000*%
%ADD25R,0.600000X1.450000*%
%ADD26R,0.300000X1.450000*%
%ADD27O,1.000000X2.100000*%
%ADD28O,1.000000X1.600000*%
%ADD29RoundRect,0.102000X-0.100000X-0.350000X0.100000X-0.350000X0.100000X0.350000X-0.100000X0.350000X0*%
%ADD30RoundRect,0.102000X-0.350000X-0.100000X0.350000X-0.100000X0.350000X0.100000X-0.350000X0.100000X0*%
%ADD31RoundRect,0.150000X-0.512500X-0.150000X0.512500X-0.150000X0.512500X0.150000X-0.512500X0.150000X0*%
G04 APERTURE END LIST*
D10*
%TO.C,J102*%
X219820000Y-97310000D03*
D11*
X221820000Y-97310000D03*
%TD*%
D12*
%TO.C,C105*%
X121757500Y-52370000D03*
X123482500Y-52370000D03*
%TD*%
D13*
%TO.C,R114*%
X204937500Y-56580000D03*
X206762500Y-56580000D03*
%TD*%
D14*
%TO.C,REF\u002A\u002A*%
X192780000Y-115610000D03*
%TD*%
D15*
%TO.C,U101*%
X215160000Y-85755000D03*
X215160000Y-87025000D03*
X215160000Y-88295000D03*
X215160000Y-89565000D03*
X223460000Y-89565000D03*
X223460000Y-88295000D03*
X223460000Y-87025000D03*
X223460000Y-85755000D03*
D16*
X219310000Y-87660000D03*
%TD*%
D17*
%TO.C,SW102*%
X211130000Y-65900000D03*
D18*
X211130000Y-70900000D03*
X211130000Y-68400000D03*
D19*
X218630000Y-62800000D03*
X218630000Y-74000000D03*
D18*
X225630000Y-70900000D03*
X225630000Y-65900000D03*
%TD*%
D13*
%TO.C,R103*%
X216457500Y-105200000D03*
X218282500Y-105200000D03*
%TD*%
%TO.C,R116*%
X204805000Y-68400000D03*
X206630000Y-68400000D03*
%TD*%
%TO.C,R115*%
X204850000Y-63110000D03*
X206675000Y-63110000D03*
%TD*%
D20*
%TO.C,J107*%
X208820002Y-115250000D03*
X207720002Y-115250000D03*
X206620002Y-115250000D03*
X205520002Y-115250000D03*
X204420001Y-115250000D03*
X203320002Y-115250000D03*
X202220001Y-115250000D03*
X201120002Y-115250000D03*
D21*
X212495002Y-117850000D03*
X212495002Y-109550000D03*
X198745002Y-117850000D03*
X198745002Y-109550000D03*
%TD*%
D13*
%TO.C,R101*%
X213665000Y-82035000D03*
X215490000Y-82035000D03*
%TD*%
D14*
%TO.C,REF\u002A\u002A*%
X136850000Y-54700000D03*
%TD*%
D22*
%TO.C,J108*%
X122740000Y-57980000D03*
D23*
X122740000Y-60520000D03*
X122740000Y-63060000D03*
X122740000Y-65600000D03*
X122740000Y-68140000D03*
X122740000Y-70680000D03*
X122740000Y-73220000D03*
X122740000Y-75760000D03*
X122740000Y-78300000D03*
%TD*%
D13*
%TO.C,R102*%
X221705000Y-81975000D03*
X223530000Y-81975000D03*
%TD*%
D24*
%TO.C,J101*%
X222860000Y-117225000D03*
X217080000Y-117225000D03*
D25*
X223220000Y-118670000D03*
X222420001Y-118670000D03*
D26*
X221220000Y-118669999D03*
X220220000Y-118670000D03*
X219720000Y-118670000D03*
X218720000Y-118669999D03*
D25*
X217519999Y-118670000D03*
X216720000Y-118670000D03*
X216720000Y-118670000D03*
X217519999Y-118670000D03*
D26*
X218220000Y-118670000D03*
X219220000Y-118670000D03*
X220720000Y-118670000D03*
X221720000Y-118670000D03*
D25*
X222420001Y-118670000D03*
X223220000Y-118670000D03*
D27*
X224290000Y-117755000D03*
D28*
X224290000Y-113575000D03*
D27*
X215650000Y-117755000D03*
D28*
X215650000Y-113575000D03*
%TD*%
D13*
%TO.C,R104*%
X221805000Y-105520000D03*
X223630000Y-105520000D03*
%TD*%
D14*
%TO.C,U107*%
X128730000Y-83060000D03*
X128730000Y-116060000D03*
X176730000Y-83060000D03*
X176730000Y-116060000D03*
D29*
X160030000Y-81020000D03*
X160030000Y-84100000D03*
X159630000Y-81020000D03*
X159630000Y-84100000D03*
X159230000Y-81020000D03*
X159230000Y-84100000D03*
X158830000Y-81020000D03*
X158830000Y-84100000D03*
X158430000Y-81020000D03*
X158430000Y-84100000D03*
X158030000Y-81020000D03*
X158030000Y-84100000D03*
X157630000Y-81020000D03*
X157630000Y-84100000D03*
X157230000Y-81020000D03*
X157230000Y-84100000D03*
X156830000Y-81020000D03*
X156830000Y-84100000D03*
X156430000Y-81020000D03*
X156430000Y-84100000D03*
X156030000Y-81020000D03*
X156030000Y-84100000D03*
X155630000Y-81020000D03*
X155630000Y-84100000D03*
X155230000Y-81020000D03*
X155230000Y-84100000D03*
X154830000Y-81020000D03*
X154830000Y-84100000D03*
X154430000Y-81020000D03*
X154430000Y-84100000D03*
X154030000Y-81020000D03*
X154030000Y-84100000D03*
X153630000Y-81020000D03*
X153630000Y-84100000D03*
X153230000Y-81020000D03*
X153230000Y-84100000D03*
X152830000Y-81020000D03*
X152830000Y-84100000D03*
X152430000Y-81020000D03*
X152430000Y-84100000D03*
X152030000Y-81020000D03*
X152030000Y-84100000D03*
X151630000Y-81020000D03*
X151630000Y-84100000D03*
X151230000Y-81020000D03*
X151230000Y-84100000D03*
X150830000Y-81020000D03*
X150830000Y-84100000D03*
X150430000Y-81020000D03*
X150430000Y-84100000D03*
X150030000Y-81020000D03*
X150030000Y-84100000D03*
X149630000Y-81020000D03*
X149630000Y-84100000D03*
X149230000Y-81020000D03*
X149230000Y-84100000D03*
X148830000Y-81020000D03*
X148830000Y-84100000D03*
X148430000Y-81020000D03*
X148430000Y-84100000D03*
X148030000Y-81020000D03*
X148030000Y-84100000D03*
X147630000Y-81020000D03*
X147630000Y-84100000D03*
X147230000Y-81020000D03*
X147230000Y-84100000D03*
X146830000Y-81020000D03*
X146830000Y-84100000D03*
X146430000Y-81020000D03*
X146430000Y-84100000D03*
X146030000Y-81020000D03*
X146030000Y-84100000D03*
X145630000Y-81020000D03*
X145630000Y-84100000D03*
X145230000Y-81020000D03*
X145230000Y-84100000D03*
X144830000Y-81020000D03*
X144830000Y-84100000D03*
X144430000Y-81020000D03*
X144430000Y-84100000D03*
X144030000Y-81020000D03*
X144030000Y-84100000D03*
X143630000Y-81020000D03*
X143630000Y-84100000D03*
X143230000Y-81020000D03*
X143230000Y-84100000D03*
X142830000Y-81020000D03*
X142830000Y-84100000D03*
X142430000Y-81020000D03*
X142430000Y-84100000D03*
X142030000Y-81020000D03*
X142030000Y-84100000D03*
X141630000Y-81020000D03*
X141630000Y-84100000D03*
X141230000Y-81020000D03*
X141230000Y-84100000D03*
X140830000Y-81020000D03*
X140830000Y-84100000D03*
X140430000Y-81020000D03*
X140430000Y-84100000D03*
X160030000Y-115020000D03*
X160030000Y-118100000D03*
X159630000Y-115020000D03*
X159630000Y-118100000D03*
X159230000Y-115020000D03*
X159230000Y-118100000D03*
X158830000Y-115020000D03*
X158830000Y-118100000D03*
X158430000Y-115020000D03*
X158430000Y-118100000D03*
X158030000Y-115020000D03*
X158030000Y-118100000D03*
X157630000Y-115020000D03*
X157630000Y-118100000D03*
X157230000Y-115020000D03*
X157230000Y-118100000D03*
X156830000Y-115020000D03*
X156830000Y-118100000D03*
X156430000Y-115020000D03*
X156430000Y-118100000D03*
X156030000Y-115020000D03*
X156030000Y-118100000D03*
X155630000Y-115020000D03*
X155630000Y-118100000D03*
X155230000Y-115020000D03*
X155230000Y-118100000D03*
X154830000Y-115020000D03*
X154830000Y-118100000D03*
X154430000Y-115020000D03*
X154430000Y-118100000D03*
X154030000Y-115020000D03*
X154030000Y-118100000D03*
X153630000Y-115020000D03*
X153630000Y-118100000D03*
X153230000Y-115020000D03*
X153230000Y-118100000D03*
X152830000Y-115020000D03*
X152830000Y-118100000D03*
X152430000Y-115020000D03*
X152430000Y-118100000D03*
X152030000Y-115020000D03*
X152030000Y-118100000D03*
X151630000Y-115020000D03*
X151630000Y-118100000D03*
X151230000Y-115020000D03*
X151230000Y-118100000D03*
X150830000Y-115020000D03*
X150830000Y-118100000D03*
X150430000Y-115020000D03*
X150430000Y-118100000D03*
X150030000Y-115020000D03*
X150030000Y-118100000D03*
X149630000Y-115020000D03*
X149630000Y-118100000D03*
X149230000Y-115020000D03*
X149230000Y-118100000D03*
X148830000Y-115020000D03*
X148830000Y-118100000D03*
X148430000Y-115020000D03*
X148430000Y-118100000D03*
X148030000Y-115020000D03*
X148030000Y-118100000D03*
X147630000Y-115020000D03*
X147630000Y-118100000D03*
X147230000Y-115020000D03*
X147230000Y-118100000D03*
X146830000Y-115020000D03*
X146830000Y-118100000D03*
X146430000Y-115020000D03*
X146430000Y-118100000D03*
X146030000Y-115020000D03*
X146030000Y-118100000D03*
X145630000Y-115020000D03*
X145630000Y-118100000D03*
X145230000Y-115020000D03*
X145230000Y-118100000D03*
X144830000Y-115020000D03*
X144830000Y-118100000D03*
X144430000Y-115020000D03*
X144430000Y-118100000D03*
X144030000Y-115020000D03*
X144030000Y-118100000D03*
X143630000Y-115020000D03*
X143630000Y-118100000D03*
X143230000Y-115020000D03*
X143230000Y-118100000D03*
X142830000Y-115020000D03*
X142830000Y-118100000D03*
X142430000Y-115020000D03*
X142430000Y-118100000D03*
X142030000Y-115020000D03*
X142030000Y-118100000D03*
X141630000Y-115020000D03*
X141630000Y-118100000D03*
X141230000Y-115020000D03*
X141230000Y-118100000D03*
X140830000Y-115020000D03*
X140830000Y-118100000D03*
X140430000Y-115020000D03*
X140430000Y-118100000D03*
D30*
X178870000Y-101760000D03*
X175789999Y-101760000D03*
X178870000Y-101360000D03*
X175790000Y-101360000D03*
X178870000Y-100960000D03*
X175790000Y-100960000D03*
X178870000Y-100560000D03*
X175790000Y-100560000D03*
X178870000Y-100160000D03*
X175789999Y-100160000D03*
X178870000Y-99760000D03*
X175790000Y-99760000D03*
X178870000Y-99360000D03*
X175790000Y-99360000D03*
X178870000Y-98960000D03*
X175789999Y-98960000D03*
X178870000Y-98560000D03*
X175790000Y-98560000D03*
X178870000Y-98160000D03*
X175790000Y-98160000D03*
X178870000Y-97760000D03*
X175790000Y-97760000D03*
X178870000Y-97360000D03*
X175789999Y-97360000D03*
%TD*%
D17*
%TO.C,SW101*%
X211000000Y-51630000D03*
D18*
X211000000Y-56630000D03*
X211000000Y-54130000D03*
D19*
X218500000Y-48530000D03*
X218500000Y-59730000D03*
D18*
X225500000Y-56630000D03*
X225500000Y-51630000D03*
%TD*%
D31*
%TO.C,U102*%
X207042500Y-97600000D03*
X207042500Y-98550000D03*
X207042500Y-99500000D03*
X209317500Y-99500000D03*
X209317500Y-98550000D03*
X209317500Y-97600000D03*
%TD*%
D13*
%TO.C,R107*%
X204847500Y-50195000D03*
X206672500Y-50195000D03*
%TD*%
D22*
%TO.C,J104-ledrgbring*%
X121070000Y-109399999D03*
D23*
X121070000Y-106859999D03*
X121070000Y-104320000D03*
X121070000Y-101779999D03*
%TD*%
M02*
